<svg width="24" height="24" viewBox="0 0 24 24" fill="none" xmlns="http://www.w3.org/2000/svg">
<path d="M21.6937 4.15669C21.6937 4.15669 21.6937 4.16607 21.6937 4.17075L16.2375 22.1651C16.1549 22.4574 15.9849 22.7174 15.7503 22.9103C15.5157 23.1032 15.2277 23.2197 14.925 23.2442C14.8819 23.2479 14.8387 23.2498 14.7956 23.2498C14.5119 23.2507 14.2339 23.1704 13.9944 23.0184C13.7548 22.8664 13.5638 22.6491 13.4437 22.392L10.0959 15.3242C10.0629 15.2543 10.0523 15.1758 10.0655 15.0996C10.0788 15.0234 10.1153 14.9532 10.17 14.8986L15.5381 9.5295C15.6728 9.38771 15.7468 9.19889 15.7443 9.00332C15.7418 8.80775 15.663 8.6209 15.5247 8.48259C15.3864 8.34429 15.1996 8.26549 15.004 8.26299C14.8084 8.26048 14.6196 8.33448 14.4778 8.46919L9.10124 13.8373C9.0466 13.892 8.97637 13.9285 8.90017 13.9418C8.82397 13.9551 8.74554 13.9444 8.67562 13.9114L1.64437 10.5804C1.36822 10.4539 1.13583 10.2483 0.976618 9.98963C0.817406 9.73095 0.738535 9.43085 0.749994 9.12732C0.765264 8.81535 0.878206 8.51607 1.07285 8.2718C1.2675 8.02752 1.534 7.85061 1.83468 7.76607L19.8291 2.30982H19.8431C20.0993 2.23784 20.3701 2.23531 20.6276 2.30251C20.8851 2.3697 21.1201 2.50419 21.3084 2.69217C21.4968 2.88016 21.6318 3.11487 21.6995 3.37224C21.7672 3.6296 21.7652 3.90034 21.6937 4.15669Z" fill="#F28C0F"/>
</svg>
