<svg width="1436" height="1076" viewBox="0 0 1436 1076" fill="none" xmlns="http://www.w3.org/2000/svg">
<path opacity="0.59" d="M1030.08 889.116C1146.88 924.568 1353.4 942.024 1492 934.968C1471.11 919.551 1304.53 870.278 1105.08 793.634C981.569 733.756 991.743 700.289 1102.59 742.096C1252.88 871.033 1353.91 1067.05 1367.66 1247.78C1296.41 1304.72 1167.7 1199.11 1026.45 996.206C889.735 882.373 788.643 974.412 723.543 1228.32C684.628 1405.51 664.755 1326.88 648.68 1068.95C639.229 944.862 619.636 1115.07 584.173 1383.78C548.721 1403.02 499.103 1151 441.685 946.21C368.591 1142.44 348.771 1155.98 452.193 867.657C538.806 898.275 616.615 1064.61 641.397 1216.99C581.185 1264.15 438.114 1174.5 250.928 1014.21C103.164 835.409 61.195 706.148 158.715 636.819C332.178 614.939 478.572 621.499 485.779 627.95C333.494 642.904 119.8 636.225 3 600.773C75.2205 565.321 278.687 502.767 459.907 420.956C499.675 347.645 384.99 276.59 209.854 237.038C80.2912 244.936 80.8954 315.797 200.436 439.955C383.371 545.61 546.013 584.353 637.146 490.727C644.774 291.878 588.111 83.5239 508.565 15.9966C421.057 142.56 364.512 360.419 344.844 449.924C349.03 292.59 379.099 27.4004 420.388 -60C468.992 131.113 514.337 375.934 549.789 356.697C585.241 87.9905 609.117 -75.0289 627.382 62.7446C652.952 334.354 687.379 433.147 744.636 281.941C825.735 54.038 940.669 -6.20687 1082.81 144.535C1270.79 458.177 1258.44 314.696 1052.11 167.849C969.475 180.688 1000.67 272.523 1156.22 393.843C1357.36 531.93 1492.22 645.698 1466.13 727.974C1298.58 801.899 1102.3 853.663 1030.08 889.116Z" stroke="url(#paint0_linear_107_1476)" stroke-opacity="0.1" stroke-width="1.61833" stroke-linecap="round"/>
<path opacity="0.55" d="M993.393 623.289C1096.79 656.206 1286.69 661.471 1435.53 644.63C1458.09 633.992 1339.8 617.841 1154.89 620.441C992.821 664.406 927.7 762.293 967.403 917.987C1084.43 1083.1 1211.12 1217.92 1295.21 1249.55C1319.7 1159.14 1274.4 986.571 1184.09 849.747C1063.57 873.116 944.153 1064.15 842.749 1295.25C751.173 1370.21 682.955 1219.51 632.571 982.169C588.143 914.502 551.493 1098.84 518.577 1347.1C471.839 1266.49 432.827 1031.24 471.526 1322.47C515.879 1333.17 581.076 1152.45 650.858 932.249C690.432 813.518 688.458 856.091 620.833 992.721C493.6 1141.85 327.884 1208.18 176.57 1177.65C102.591 1069.21 138.195 928.937 276.13 799.892C436.894 681.862 536.454 599.802 501.185 545.254C339.644 501.602 143.082 467.434 39.6816 434.506C100.844 401.59 283.617 371.478 466.315 353.04C543.866 345.509 481.15 367.68 332.361 428.659C177.434 500.663 106.637 586.715 145.606 644.425C274.652 624.217 439.289 510.622 582.673 318.343C677.938 138.569 707.888 56.9726 689.547 141.428C633.586 327.33 572.273 478.525 525.104 443.698C473.857 118.965 490.191 316.099 534.63 393.379C567.547 145.128 608.782 -32.5316 661.475 47.8344C719.368 297.877 796.821 467.304 896.337 416.478C1000.55 209.527 1116.08 48.007 1222.77 58.9146C1291.86 230.026 1309.17 441.616 1257.05 575.171C1156.81 586.683 1031.21 499.121 936.439 384.748C931.746 279.794 1032.06 236.132 1211.13 249.219C1384.06 303.659 1465.51 379.699 1400.66 452.427C1230.65 531.358 1054.56 590.373 993.393 623.289Z" stroke="url(#paint1_linear_107_1476)" stroke-opacity="0.1" stroke-width="1.61833" stroke-linecap="round"/>
<path opacity="0.41" d="M956.712 435.272C1047.32 465.665 1219.12 494.622 1371.54 529.448C1430.09 573.93 1362.71 641.037 1210.59 741.179C1038.5 857.137 918.455 994.361 883.391 1121.74C933.462 1192.65 1033.37 1183.24 1137.63 1078.51C1224.77 934.299 1261.9 814.273 1249.88 810.325C1197.94 949.673 1119.76 1167.11 1034.93 1320.6C941.618 1294.32 859.612 1103.32 794.415 905.935C730.459 891.155 683.01 1083.03 652.618 1310.42C622.236 1348.27 610.336 1161.87 616.993 935.4C624.869 865.251 651.603 998.105 692.256 1200.71C724.428 1315.03 752.555 1249.99 757.658 1064.62C722.831 866.858 642.088 766.9 515.114 786.179C371.029 897.358 235.111 1024.6 153.397 1110.66C156.817 1143.44 249.601 1111.23 399.414 1041.22C529.258 943.707 579.351 848.28 509.072 770.719C344.92 693.05 166.969 638.264 76.3643 607.883C127.244 577.491 288.602 572.938 466.456 593.296C572.618 613.547 560.708 653.692 453.251 698.542C302.024 715.879 186.27 698.056 150.386 618.434C200.706 485.538 318.121 314.675 459.444 163.685C597.983 104.562 699.107 168.497 756.126 334.602C773.485 488.343 762.081 526.114 740.245 389.528C693.615 89.5872 670.16 377.789 705.828 430.061C736.22 202.687 784.986 16.9675 850.485 43.4649C915.952 252.574 996.037 460.874 1082.92 509.435C1188.14 283.117 1209.41 193.948 1081.96 456.008C980.458 600.557 899.056 653.584 880.381 629.515C947.908 548.976 1090.91 461.791 1264.43 398.504C1394.16 351.022 1423.36 339.187 1328.93 352.026C1162.79 374.499 1007.59 404.88 956.712 435.272Z" stroke="url(#paint2_linear_107_1476)" stroke-opacity="0.1" stroke-width="1.61833" stroke-linecap="round"/>
<path opacity="0.07" d="M920.029 585.831C998.475 613.688 1151.17 663.219 1301.03 733.692C1386.65 805.071 1367.76 895.395 1260.29 993.573C1104.7 1072.67 958.988 1127.32 865.136 1130.29C839.555 1078.56 877.37 971.683 951.425 842.281C1045.81 759.402 1124.84 763.167 1173.53 882.211C1196.31 1069.63 1185.92 1241.07 1153.36 1290.49C1104.56 1184.81 1049.91 987.251 999.371 842.789C945.804 874.454 903.231 1067.52 875.374 1273.74C847.518 1318.33 835.704 1165.93 836.729 948.044C834.733 826.336 838.714 881.229 839.232 1051.68C823.523 1221.8 788.039 1273.11 722.335 1187.36C630.705 1011.64 511.683 837.351 380.793 731.275C270.229 713.927 199.389 771.593 195.969 859.522C260.81 958.499 381.537 1025.71 516.7 1053.63C603.755 1055.16 606.786 1029.4 510.41 992.656C349.807 948.023 191.481 908.234 113.035 880.377C154.454 852.52 294.137 837.923 461.59 830.015C586.331 814.23 619.366 789.308 560.934 739.518C437.833 663.316 309.047 550.228 221.722 408.322C194.998 277.454 238.736 179.804 331.552 160.654C455.365 230.209 578.53 371.467 681.521 518.185C764.206 574.923 817.05 498.635 847.528 308.094C861.198 117.239 867.218 46.4861 875.256 157.438C879.528 364.573 893.802 511.323 921.659 466.733C949.515 260.515 989.628 73.1129 1037.9 52.1934C1082.4 207.402 1127.05 420.794 1161.66 546.916C1179.45 517.904 1172.48 371.446 1132.72 213.044C1072.67 123.001 989.499 152.271 902.185 271.638C845.878 437.549 835.164 584.418 890.9 679.09C1007.22 719.051 1161 710.259 1304.51 679.456C1383.38 629.547 1366.19 589.898 1252.21 571.05C1095.49 553.119 961.448 557.974 920.029 585.831Z" stroke="url(#paint3_linear_107_1476)" stroke-opacity="0.1" stroke-width="1.61833" stroke-linecap="round"/>
<path opacity="0.73" d="M883.272 865.974C949.828 891.295 1082.63 929.239 1224.55 973.927C1327.89 1012.42 1351.18 1044.87 1293.26 1057.02C1174.6 1045.51 1033.87 998.353 909.953 914.642C824.117 824.836 791.675 739.032 805.117 696.751C857.066 730.886 923.881 845.572 986.834 1016.6C1047.29 1173.28 1086.31 1252.59 1103.29 1203.93C1103.59 967.281 1041.08 957.787 1002.6 1236.88C977.275 1286.51 954.144 1167.39 930.354 968.737C902.702 814.478 867.186 794.778 817.73 902.354C756.859 1072.09 676.137 1200.11 576.653 1227.56C474.666 1149.48 371.492 1003.18 286.369 849.467C239.728 723.928 242.156 660.532 301.624 653.433C399.155 692.845 517.174 751.148 617.273 804.866C656.631 860.32 618.924 893.582 505.813 904.037C354.122 910.251 216.198 899.343 149.642 874.022C182.925 848.701 301.462 810.163 453.995 756.197C586.924 698.002 654.969 618.672 645.194 519.339C566.015 421.743 453.844 321.72 347.811 243.274C268.437 211.318 241.487 238.344 265.266 330.664C331.326 451.175 423.387 567.479 521.835 619.211C624.038 565.429 711.88 414.72 781.457 226.422C841.692 100.257 886.595 105.501 920.957 249.942C951.597 438.833 978.343 552.849 1003.66 503.296C1040.35 226.789 1082.79 265.478 1067.03 527.927C1041.34 595.163 995.195 538.586 932.026 408.268C844.756 221.287 821.926 314.534 956.161 504.45C1088.56 627.206 1223.44 716.063 1321.19 771.453C1349.52 803.204 1295.89 816.809 1172.74 826.076C1029.97 829.14 916.555 840.641 883.272 865.974Z" stroke="url(#paint4_linear_107_1476)" stroke-opacity="0.1" stroke-width="1.61833" stroke-linecap="round"/>
<path opacity="0.08" d="M846.601 887.379C902.53 910.165 1015.61 921.537 1144.97 918.948C1255.91 912.41 1310.88 885.988 1299.42 838.247C1228.4 788.025 1117.74 726.129 996.361 668.981C882.463 643.724 798.753 658.818 751.497 730.779C739.554 849.532 756.061 998.666 787.91 1135.39C834.259 1207.81 877.651 1188.11 910.46 1073.53C942.255 919.131 959.323 790.528 961.75 761.754C962.452 858.293 951.069 1036.49 928.273 1200.21C905.487 1252.98 872.376 1165.28 828.692 993.984C783.271 827.232 724.741 747.815 653.459 780.279C581.152 902.602 500.225 1047.41 418.748 1151.75C351.771 1186.03 302.552 1137.68 284.621 1033.93C302.002 899.01 358.687 772.964 448.849 677.278C591.607 597.559 651.819 597.667 498.1 613.623C359.949 624.65 242.264 620.42 186.335 597.634C211.818 574.848 309.554 534.574 443.681 480.575C575.639 429.587 667.377 372.223 700.164 319.919C671.088 286.473 596.861 278.08 503.786 308.083C407.139 368.62 335.577 461.954 299.424 567.005C296.413 640.898 327.388 662.238 380.663 604.269C451.967 476.206 527.705 310.964 598.49 171.928C670.786 122.731 731.819 189.126 779.743 347.064C826.577 509.576 861.576 592.693 884.362 539.99C911.906 289.494 898.075 223.218 855.491 465.104C824.203 596.404 786.011 636.56 749.825 587.892C731.668 474.9 733.415 352.792 766.3 263.903C832.338 221.816 930.916 239.445 1051.3 299.808C1168.11 392.085 1262.77 491.515 1308.56 581.235C1292.47 668.474 1213.7 736.357 1090.55 785.878C965.203 831.45 872.095 864.583 846.601 887.379Z" stroke="url(#paint5_linear_107_1476)" stroke-opacity="0.1" stroke-width="1.61833" stroke-linecap="round"/>
<path opacity="0.45" d="M809.994 620.182C856.407 640.433 950.367 643.626 1063.81 632.255C1210.7 613.234 1218.18 579.444 1092.28 617.312C985.388 680.88 884.35 777.667 801.147 899.905C717.738 1069.42 684.865 1102.26 702.386 922.011C721.148 796.407 734.396 724.079 738.119 744.686C742.65 857.483 735.529 1021.03 715.268 1163.7C695.006 1217.72 662.564 1158.56 619.83 1019.81C577.904 859.112 527.801 742.323 473.932 706.169C426.31 755.841 382.939 862.521 351.997 981.619C338.921 1084.21 348.717 1134.66 386.133 1128.56C442.785 1073.13 519.806 984.953 605.599 886.764C677.194 782.954 725.452 694.571 733.436 626.483C692.417 569.194 606.171 529.027 488.821 500.232C367.554 475.709 269.505 454.843 223.092 434.582C241.379 414.331 319.145 395.634 432.438 381.943C555.194 372.535 658.141 375.848 722.194 398.029C739.489 431 712.722 486.023 655.454 558.61C576.027 625.577 496.891 684.667 431.737 713.549C380.533 693.093 355.028 618.629 353.011 494.945C368.773 354.745 399.867 229.918 438.491 165.39C484.656 186.687 529.851 291.943 569.036 444.821C609.548 575.754 641.041 630.809 661.302 576.79C681.563 434.118 689.644 274.67 687.335 169.705C686.364 156.91 678.025 240.771 666.966 381.21C663.449 531.444 665.704 639.343 681.153 680.869C714.394 653.746 768.975 577.933 846.719 484.89C938.413 389.204 1041.59 321.493 1142.1 289.159C1220.47 286.138 1265.42 312.247 1263 354.464C1213.81 410.307 1122.41 466.301 1007.47 513.966C901.99 563.541 828.302 599.91 809.983 620.172C809.99 620.179 809.994 620.182 809.994 620.182Z" stroke="url(#paint6_linear_107_1476)" stroke-opacity="0.1" stroke-width="1.61833" stroke-linecap="round"/>
<path opacity="0.85" d="M773.302 435.036C890.102 470.488 1088.04 507.634 1216.63 580.782C1214.46 692.77 1086.4 873.365 922.371 1059.26C764.94 1125.55 665.953 1009.67 615.569 776.912C592.254 685.013 574.021 858.282 538.569 1127.01C478.453 1021.94 426.44 802.957 559.24 1043.86C676.806 1082.03 767.26 994.901 743.427 876.774C588.866 739.583 376.553 646.324 259.764 610.872C331.973 575.42 533.768 601.13 713.1 676.878C779.699 733.563 722.152 765.358 615.547 680.73C495.996 485.776 432.914 263.331 426.397 216.087C445.774 398.44 484.97 632.698 520.422 613.461C555.874 344.733 584.227 185.846 626.293 303.725C694.252 562.463 812.67 715.945 978.689 696.115C1131.75 556.691 1226.91 431.432 1186.29 380.886C1032.95 369.181 845.522 399.583 773.302 435.036Z" stroke="url(#paint7_linear_107_1476)" stroke-opacity="0.1" stroke-width="1.61833" stroke-linecap="round"/>
<path opacity="0.12" d="M736.63 588.819C827.267 619.201 991.473 697.916 1129.61 817.284C1193.89 929.11 1153.92 1038.69 1051.7 1071.49C914.419 998.008 790.671 824.771 702.289 664.589C625.613 670.437 575.391 862.953 544.998 1090.34C514.617 1128.19 506.935 944.657 530.951 725.773C566.662 626.235 642.993 691.464 740.438 823.477C802.83 960.678 810.576 1018.73 724.018 1009.97C563.609 965.835 387.082 912.592 296.456 882.2C347.282 851.819 507.216 847.158 678.586 838.635C796.184 794.735 822.326 689.253 783.399 512.219C698.394 340.385 621.729 242.918 580.256 320.177C546.444 516.782 547.264 688.001 577.646 650.154C608.027 422.768 665.1 242.573 751.562 258.994C845.694 441.444 969.787 646.917 1094.64 760.232C1173.39 767.256 1179.51 705.112 1084.21 645.946C935.123 579.239 787.499 558.416 736.619 588.809C736.626 588.816 736.63 588.819 736.63 588.819Z" stroke="url(#paint8_linear_107_1476)" stroke-opacity="0.1" stroke-width="1.61833" stroke-linecap="round"/>
<path opacity="0.68" d="M699.959 868.163C766.979 893.485 893.727 942.035 1020.28 991.005C1118.41 1015.79 1149.41 996.831 1122.51 908.341C1053.73 788.499 967.274 658.256 890.792 603.502C810.922 681.268 754.518 868.66 729.197 1053.6C703.875 1103.23 712.032 985.87 748.013 799.169C804.071 610.181 827.915 749.896 682.287 848.733C537.166 892.179 400.159 897.509 333.139 872.188C365.915 846.866 483.211 793.278 627.857 705.953C760.992 608.767 843.99 478.158 874.21 352.241C860.551 288.695 827.192 319.67 800.824 461.176C768.069 629.32 760.333 736.41 785.666 686.782C810.966 501.828 866.938 324.708 943.582 265.51C1013.83 338.82 1086.73 495.916 1133.58 648.956C1136.57 770.643 1080.45 829.119 965.882 848.215C839.804 843.133 732.757 842.831 699.948 868.153C699.956 868.16 699.959 868.163 699.959 868.163Z" stroke="url(#paint9_linear_107_1476)" stroke-opacity="0.1" stroke-width="1.61833" stroke-linecap="round"/>
<path opacity="0.08" d="M663.223 885.674C709.475 905.935 798.526 904.662 898.398 875.975C997.58 838.279 1064.47 765.529 1093.1 671.472C1095.18 600.191 1071.01 563.411 1037.09 600.029C995.131 712.222 959.215 874.238 938.953 1016.92C918.692 1070.94 916.016 1012.28 922.856 883.969C921.67 731.199 914.215 611.109 885.592 546.246C830.418 529.729 742.035 547.487 627.997 569.788C513.28 602.866 416.018 615.014 369.767 594.764C388.226 574.502 465.787 523.752 572.489 455.566C689.656 398.148 789.927 348.778 860.313 338.734C907.072 377.056 929.912 475.655 941.424 613.58C944.24 727.046 951.835 777.484 972.097 723.464C992.358 580.781 1023.35 426.976 1055.66 329.639C1079.25 307.867 1088.02 366.138 1067.83 463.96C1023.98 584.579 945.2 688.95 842.889 761.753C751.033 825.548 681.683 865.423 663.223 885.674Z" stroke="url(#paint10_linear_107_1476)" stroke-opacity="0.1" stroke-width="1.61833" stroke-linecap="round"/>
<path opacity="0.69" d="M626.584 617.064C717.222 647.456 866.215 583.274 965.257 517.537C1031.47 559.506 1030.57 752.885 1000.18 980.292C969.799 1018.14 915.671 840.199 809.628 656.638C670.754 518.282 497.129 465.082 406.492 434.7C457.34 404.308 614.512 402.474 758.392 501.009C882.625 644.738 952.666 798.047 983.048 760.2C1013.44 532.793 998.422 364.044 914.021 361.908C809.962 467.477 677.432 586.672 626.584 617.064Z" stroke="url(#paint11_linear_107_1476)" stroke-opacity="0.1" stroke-width="1.61833" stroke-linecap="round"/>
<path opacity="0.98" d="M589.902 434.841C735.066 475.364 903.178 635.859 862.665 943.546C822.143 937.925 588.338 654.567 443.174 614.044C539.615 573.532 768.63 791.197 809.153 796.818C849.665 489.131 686.343 394.329 589.902 434.841Z" stroke="url(#paint12_linear_107_1476)" stroke-opacity="0.1" stroke-width="1.61833" stroke-linecap="round"/>
<defs>
<linearGradient id="paint0_linear_107_1476" x1="74453" y1="-60" x2="74453" y2="144422" gradientUnits="userSpaceOnUse">
<stop stop-color="#1F89DB"/>
<stop offset="1" stop-color="#F42A8B"/>
</linearGradient>
<linearGradient id="paint1_linear_107_1476" x1="69969.6" y1="28.2852" x2="69969.6" y2="131910" gradientUnits="userSpaceOnUse">
<stop stop-color="#1F89DB"/>
<stop offset="1" stop-color="#F42A8B"/>
</linearGradient>
<linearGradient id="paint2_linear_107_1476" x1="65883.6" y1="40.9404" x2="65883.6" y2="128007" gradientUnits="userSpaceOnUse">
<stop stop-color="#1F89DB"/>
<stop offset="1" stop-color="#F42A8B"/>
</linearGradient>
<linearGradient id="paint3_linear_107_1476" x1="62200.5" y1="52.1934" x2="62200.5" y2="123882" gradientUnits="userSpaceOnUse">
<stop stop-color="#1F89DB"/>
<stop offset="1" stop-color="#F42A8B"/>
</linearGradient>
<linearGradient id="paint4_linear_107_1476" x1="59097.6" y1="136.418" x2="59097.6" y2="111308" gradientUnits="userSpaceOnUse">
<stop stop-color="#1F89DB"/>
<stop offset="1" stop-color="#F42A8B"/>
</linearGradient>
<linearGradient id="paint5_linear_107_1476" x1="56297.5" y1="155.984" x2="56297.5" y2="106106" gradientUnits="userSpaceOnUse">
<stop stop-color="#1F89DB"/>
<stop offset="1" stop-color="#F42A8B"/>
</linearGradient>
<linearGradient id="paint6_linear_107_1476" x1="52223" y1="165.39" x2="52223" y2="101979" gradientUnits="userSpaceOnUse">
<stop stop-color="#1F89DB"/>
<stop offset="1" stop-color="#F42A8B"/>
</linearGradient>
<linearGradient id="paint7_linear_107_1476" x1="48102.9" y1="216.087" x2="48102.9" y2="91308.4" gradientUnits="userSpaceOnUse">
<stop stop-color="#1F89DB"/>
<stop offset="1" stop-color="#F42A8B"/>
</linearGradient>
<linearGradient id="paint8_linear_107_1476" x1="43508.7" y1="257.954" x2="43508.7" y2="83994" gradientUnits="userSpaceOnUse">
<stop stop-color="#1F89DB"/>
<stop offset="1" stop-color="#F42A8B"/>
</linearGradient>
<linearGradient id="paint9_linear_107_1476" x1="40361.1" y1="265.51" x2="40361.1" y2="80215.3" gradientUnits="userSpaceOnUse">
<stop stop-color="#1F89DB"/>
<stop offset="1" stop-color="#F42A8B"/>
</linearGradient>
<linearGradient id="paint10_linear_107_1476" x1="36542.8" y1="325.09" x2="36542.8" y2="71514.2" gradientUnits="userSpaceOnUse">
<stop stop-color="#1F89DB"/>
<stop offset="1" stop-color="#F42A8B"/>
</linearGradient>
<linearGradient id="paint11_linear_107_1476" x1="31086.7" y1="361.908" x2="31086.7" y2="62713.3" gradientUnits="userSpaceOnUse">
<stop stop-color="#1F89DB"/>
<stop offset="1" stop-color="#F42A8B"/>
</linearGradient>
<linearGradient id="paint12_linear_107_1476" x1="21724.3" y1="425.989" x2="21724.3" y2="52181.6" gradientUnits="userSpaceOnUse">
<stop stop-color="#1F89DB"/>
<stop offset="1" stop-color="#F42A8B"/>
</linearGradient>
</defs>
</svg>
