<svg width="1440" height="480" viewBox="0 0 1440 480" fill="none" xmlns="http://www.w3.org/2000/svg">
<path d="M1086.99 34L1453.16 -172H1086.99V34Z" stroke="url(#paint0_linear_48_3076)" stroke-opacity="0.2" stroke-width="2.06" stroke-linejoin="round"/>
<path d="M903.913 34V-69L720.83 34H903.913Z" stroke="url(#paint1_linear_48_3076)" stroke-opacity="0.2" stroke-width="2.06" stroke-linejoin="round"/>
<path d="M1086.99 -69H903.912L1086.99 34V-69Z" stroke="url(#paint2_linear_48_3076)" stroke-opacity="0.2" stroke-width="2.06" stroke-linejoin="round"/>
<path d="M1086.99 34V137L903.912 34H1086.99Z" stroke="url(#paint3_linear_48_3076)" stroke-opacity="0.2" stroke-width="2.06" stroke-linejoin="round"/>
<path d="M903.913 34V137H720.83L903.913 34Z" stroke="url(#paint4_linear_48_3076)" stroke-opacity="0.2" stroke-width="2.06" stroke-linejoin="round"/>
<path d="M903.913 137V188.5H812.371L903.913 137Z" stroke="url(#paint5_linear_48_3076)" stroke-opacity="0.2" stroke-width="2.06" stroke-linejoin="round"/>
<path d="M812.371 137V188.5H720.83L812.371 137Z" stroke="url(#paint6_linear_48_3076)" stroke-opacity="0.2" stroke-width="2.06" stroke-linejoin="round"/>
<path d="M812.371 240V188.5H720.83L812.371 240Z" stroke="url(#paint7_linear_48_3076)" stroke-opacity="0.2" stroke-width="2.06" stroke-linejoin="round"/>
<path d="M812.371 240L903.913 188.5H812.371V240Z" stroke="url(#paint8_linear_48_3076)" stroke-opacity="0.2" stroke-width="2.06" stroke-linejoin="round"/>
<path d="M1086.99 137V188.5L995.454 137H1086.99Z" stroke="url(#paint9_linear_48_3076)" stroke-opacity="0.2" stroke-width="2.06" stroke-linejoin="round"/>
<path d="M995.454 188.5L903.912 137H995.454V188.5Z" stroke="url(#paint10_linear_48_3076)" stroke-opacity="0.2" stroke-width="2.06" stroke-linejoin="round"/>
<path d="M995.454 188.5V240H903.912L995.454 188.5Z" stroke="url(#paint11_linear_48_3076)" stroke-opacity="0.2" stroke-width="2.06" stroke-linejoin="round"/>
<path d="M995.454 188.5L1086.99 240H995.454V188.5Z" stroke="url(#paint12_linear_48_3076)" stroke-opacity="0.2" stroke-width="2.06" stroke-linejoin="round"/>
<path d="M1453.16 240V34L1086.99 240H1453.16Z" stroke="url(#paint13_linear_48_3076)" stroke-opacity="0.2" stroke-width="2.06" stroke-linejoin="round"/>
<path d="M537.748 34H354.665L537.748 -69V34Z" stroke="url(#paint14_linear_48_3076)" stroke-opacity="0.2" stroke-width="2.06" stroke-linejoin="round"/>
<path d="M720.83 34L537.747 -69H720.83V34Z" stroke="url(#paint15_linear_48_3076)" stroke-opacity="0.2" stroke-width="2.06" stroke-linejoin="round"/>
<path d="M171.582 34V-69H-11.5L171.582 34Z" stroke="url(#paint16_linear_48_3076)" stroke-opacity="0.2" stroke-width="2.06" stroke-linejoin="round"/>
<path d="M354.665 -69V34L171.583 -69H354.665Z" stroke="url(#paint17_linear_48_3076)" stroke-opacity="0.2" stroke-width="2.06" stroke-linejoin="round"/>
<path d="M354.665 34V137L171.583 34H354.665Z" stroke="url(#paint18_linear_48_3076)" stroke-opacity="0.2" stroke-width="2.06" stroke-linejoin="round"/>
<path d="M171.582 137V34L-11.5 137H171.582Z" stroke="url(#paint19_linear_48_3076)" stroke-opacity="0.2" stroke-width="2.06" stroke-linejoin="round"/>
<path d="M-11.5 137L171.582 240V137H-11.5Z" stroke="url(#paint20_linear_48_3076)" stroke-opacity="0.2" stroke-width="2.06" stroke-linejoin="round"/>
<path d="M354.665 240V137H171.583L354.665 240Z" stroke="url(#paint21_linear_48_3076)" stroke-opacity="0.2" stroke-width="2.06" stroke-linejoin="round"/>
<path d="M537.747 137V34L720.83 137H537.747Z" stroke="url(#paint22_linear_48_3076)" stroke-opacity="0.2" stroke-width="2.06" stroke-linejoin="round"/>
<path d="M446.206 34V85.5H537.747L446.206 34Z" stroke="url(#paint23_linear_48_3076)" stroke-opacity="0.2" stroke-width="2.06" stroke-linejoin="round"/>
<path d="M446.206 34H354.665L446.206 85.5V34Z" stroke="url(#paint24_linear_48_3076)" stroke-opacity="0.2" stroke-width="2.06" stroke-linejoin="round"/>
<path d="M446.206 137V85.5H354.665L446.206 137Z" stroke="url(#paint25_linear_48_3076)" stroke-opacity="0.2" stroke-width="2.06" stroke-linejoin="round"/>
<path d="M537.747 137V85.5L446.206 137H537.747Z" stroke="url(#paint26_linear_48_3076)" stroke-opacity="0.2" stroke-width="2.06" stroke-linejoin="round"/>
<path d="M537.748 240L354.665 137V240H537.748Z" stroke="url(#paint27_linear_48_3076)" stroke-opacity="0.2" stroke-width="2.06" stroke-linejoin="round"/>
<path d="M720.83 137V188.5L629.289 137H720.83Z" stroke="url(#paint28_linear_48_3076)" stroke-opacity="0.2" stroke-width="2.06" stroke-linejoin="round"/>
<path d="M537.747 188.5V137L629.289 188.5H537.747Z" stroke="url(#paint29_linear_48_3076)" stroke-opacity="0.2" stroke-width="2.06" stroke-linejoin="round"/>
<path d="M537.747 240H629.289L537.747 188.5V240Z" stroke="url(#paint30_linear_48_3076)" stroke-opacity="0.2" stroke-width="2.06" stroke-linejoin="round"/>
<path d="M720.83 240L629.289 188.5V240H720.83Z" stroke="url(#paint31_linear_48_3076)" stroke-opacity="0.2" stroke-width="2.06" stroke-linejoin="round"/>
<path d="M720.83 240V343H537.747L720.83 240Z" stroke="url(#paint32_linear_48_3076)" stroke-opacity="0.2" stroke-width="2.06" stroke-linejoin="round"/>
<path d="M537.748 343H354.665L537.748 240V343Z" stroke="url(#paint33_linear_48_3076)" stroke-opacity="0.2" stroke-width="2.06" stroke-linejoin="round"/>
<path d="M354.665 446L537.748 343H354.665V446Z" stroke="url(#paint34_linear_48_3076)" stroke-opacity="0.2" stroke-width="2.06" stroke-linejoin="round"/>
<path d="M720.83 343L629.289 394.5V343H720.83Z" stroke="url(#paint35_linear_48_3076)" stroke-opacity="0.2" stroke-width="2.06" stroke-linejoin="round"/>
<path d="M629.289 343V394.5H537.747L629.289 343Z" stroke="url(#paint36_linear_48_3076)" stroke-opacity="0.2" stroke-width="2.06" stroke-linejoin="round"/>
<path d="M629.289 394.5L537.747 446H629.289V394.5Z" stroke="url(#paint37_linear_48_3076)" stroke-opacity="0.2" stroke-width="2.06" stroke-linejoin="round"/>
<path d="M720.83 394.5L629.289 446V394.5H720.83Z" stroke="url(#paint38_linear_48_3076)" stroke-opacity="0.2" stroke-width="2.06" stroke-linejoin="round"/>
<path d="M171.583 343L354.665 240H171.583V343Z" stroke="url(#paint39_linear_48_3076)" stroke-opacity="0.2" stroke-width="2.06" stroke-linejoin="round"/>
<path d="M171.582 240H-11.5V343L171.582 240Z" stroke="url(#paint40_linear_48_3076)" stroke-opacity="0.2" stroke-width="2.06" stroke-linejoin="round"/>
<path d="M171.582 343L-11.5 446H171.582V343Z" stroke="url(#paint41_linear_48_3076)" stroke-opacity="0.2" stroke-width="2.06" stroke-linejoin="round"/>
<path d="M171.583 446L354.665 343V446H171.583Z" stroke="url(#paint42_linear_48_3076)" stroke-opacity="0.2" stroke-width="2.06" stroke-linejoin="round"/>
<path d="M354.665 652V446L-11.5 652H354.665Z" stroke="url(#paint43_linear_48_3076)" stroke-opacity="0.2" stroke-width="2.06" stroke-linejoin="round"/>
<path d="M720.83 549V446L537.747 549H720.83Z" stroke="url(#paint44_linear_48_3076)" stroke-opacity="0.2" stroke-width="2.06" stroke-linejoin="round"/>
<path d="M537.748 446L354.665 549H537.748V446Z" stroke="url(#paint45_linear_48_3076)" stroke-opacity="0.2" stroke-width="2.06" stroke-linejoin="round"/>
<path d="M1270.08 240V343L1453.16 240H1270.08Z" stroke="url(#paint46_linear_48_3076)" stroke-opacity="0.2" stroke-width="2.06" stroke-linejoin="round"/>
<path d="M1270.08 343V240L1086.99 343H1270.08Z" stroke="url(#paint47_linear_48_3076)" stroke-opacity="0.2" stroke-width="2.06" stroke-linejoin="round"/>
<path d="M1270.08 343H1086.99L1270.08 446V343Z" stroke="url(#paint48_linear_48_3076)" stroke-opacity="0.2" stroke-width="2.06" stroke-linejoin="round"/>
<path d="M1453.16 446L1270.08 343V446H1453.16Z" stroke="url(#paint49_linear_48_3076)" stroke-opacity="0.2" stroke-width="2.06" stroke-linejoin="round"/>
<path d="M1086.99 343V240L903.912 343H1086.99Z" stroke="url(#paint50_linear_48_3076)" stroke-opacity="0.2" stroke-width="2.06" stroke-linejoin="round"/>
<path d="M903.913 240V291.5H812.371L903.913 240Z" stroke="url(#paint51_linear_48_3076)" stroke-opacity="0.2" stroke-width="2.06" stroke-linejoin="round"/>
<path d="M720.83 291.5V240H812.371L720.83 291.5Z" stroke="url(#paint52_linear_48_3076)" stroke-opacity="0.2" stroke-width="2.06" stroke-linejoin="round"/>
<path d="M720.83 343L812.371 291.5V343H720.83Z" stroke="url(#paint53_linear_48_3076)" stroke-opacity="0.2" stroke-width="2.06" stroke-linejoin="round"/>
<path d="M903.913 291.5V343H812.371L903.913 291.5Z" stroke="url(#paint54_linear_48_3076)" stroke-opacity="0.2" stroke-width="2.06" stroke-linejoin="round"/>
<path d="M903.913 343L720.83 446H903.913V343Z" stroke="url(#paint55_linear_48_3076)" stroke-opacity="0.2" stroke-width="2.06" stroke-linejoin="round"/>
<path d="M1086.99 446L903.912 343V446H1086.99Z" stroke="url(#paint56_linear_48_3076)" stroke-opacity="0.2" stroke-width="2.06" stroke-linejoin="round"/>
<path d="M903.912 446L1086.99 549H903.912V446Z" stroke="url(#paint57_linear_48_3076)" stroke-opacity="0.2" stroke-width="2.06" stroke-linejoin="round"/>
<path d="M903.913 549L720.83 446V549H903.913Z" stroke="url(#paint58_linear_48_3076)" stroke-opacity="0.2" stroke-width="2.06" stroke-linejoin="round"/>
<path d="M1453.16 549V446H1270.08L1453.16 549Z" stroke="url(#paint59_linear_48_3076)" stroke-opacity="0.2" stroke-width="2.06" stroke-linejoin="round"/>
<path d="M1270.08 549V446H1086.99L1270.08 549Z" stroke="url(#paint60_linear_48_3076)" stroke-opacity="0.2" stroke-width="2.06" stroke-linejoin="round"/>
<defs>
<linearGradient id="paint0_linear_48_3076" x1="1270.08" y1="-172" x2="1270.08" y2="34" gradientUnits="userSpaceOnUse">
<stop stop-color="#D9A273"/>
<stop offset="1" stop-color="#D9A273" stop-opacity="0"/>
</linearGradient>
<linearGradient id="paint1_linear_48_3076" x1="812.371" y1="-69" x2="812.371" y2="34" gradientUnits="userSpaceOnUse">
<stop stop-color="#D9A273"/>
<stop offset="1" stop-color="#D9A273" stop-opacity="0"/>
</linearGradient>
<linearGradient id="paint2_linear_48_3076" x1="995.454" y1="-69" x2="995.454" y2="34" gradientUnits="userSpaceOnUse">
<stop stop-color="#D9A273"/>
<stop offset="1" stop-color="#D9A273" stop-opacity="0"/>
</linearGradient>
<linearGradient id="paint3_linear_48_3076" x1="995.454" y1="34" x2="995.454" y2="137" gradientUnits="userSpaceOnUse">
<stop stop-color="#D9A273"/>
<stop offset="1" stop-color="#D9A273" stop-opacity="0"/>
</linearGradient>
<linearGradient id="paint4_linear_48_3076" x1="812.371" y1="34" x2="812.371" y2="137" gradientUnits="userSpaceOnUse">
<stop stop-color="#D9A273"/>
<stop offset="1" stop-color="#D9A273" stop-opacity="0"/>
</linearGradient>
<linearGradient id="paint5_linear_48_3076" x1="858.142" y1="137" x2="858.142" y2="188.5" gradientUnits="userSpaceOnUse">
<stop stop-color="#D9A273"/>
<stop offset="1" stop-color="#D9A273" stop-opacity="0"/>
</linearGradient>
<linearGradient id="paint6_linear_48_3076" x1="766.601" y1="137" x2="766.601" y2="188.5" gradientUnits="userSpaceOnUse">
<stop stop-color="#D9A273"/>
<stop offset="1" stop-color="#D9A273" stop-opacity="0"/>
</linearGradient>
<linearGradient id="paint7_linear_48_3076" x1="766.601" y1="188.5" x2="766.601" y2="240" gradientUnits="userSpaceOnUse">
<stop stop-color="#D9A273"/>
<stop offset="1" stop-color="#D9A273" stop-opacity="0"/>
</linearGradient>
<linearGradient id="paint8_linear_48_3076" x1="858.142" y1="188.5" x2="858.142" y2="240" gradientUnits="userSpaceOnUse">
<stop stop-color="#D9A273"/>
<stop offset="1" stop-color="#D9A273" stop-opacity="0"/>
</linearGradient>
<linearGradient id="paint9_linear_48_3076" x1="1041.22" y1="137" x2="1041.22" y2="188.5" gradientUnits="userSpaceOnUse">
<stop stop-color="#D9A273"/>
<stop offset="1" stop-color="#D9A273" stop-opacity="0"/>
</linearGradient>
<linearGradient id="paint10_linear_48_3076" x1="949.683" y1="137" x2="949.683" y2="188.5" gradientUnits="userSpaceOnUse">
<stop stop-color="#D9A273"/>
<stop offset="1" stop-color="#D9A273" stop-opacity="0"/>
</linearGradient>
<linearGradient id="paint11_linear_48_3076" x1="949.683" y1="188.5" x2="949.683" y2="240" gradientUnits="userSpaceOnUse">
<stop stop-color="#D9A273"/>
<stop offset="1" stop-color="#D9A273" stop-opacity="0"/>
</linearGradient>
<linearGradient id="paint12_linear_48_3076" x1="1041.22" y1="188.5" x2="1041.22" y2="240" gradientUnits="userSpaceOnUse">
<stop stop-color="#D9A273"/>
<stop offset="1" stop-color="#D9A273" stop-opacity="0"/>
</linearGradient>
<linearGradient id="paint13_linear_48_3076" x1="1270.08" y1="34" x2="1270.08" y2="240" gradientUnits="userSpaceOnUse">
<stop stop-color="#D9A273"/>
<stop offset="1" stop-color="#D9A273" stop-opacity="0"/>
</linearGradient>
<linearGradient id="paint14_linear_48_3076" x1="446.206" y1="-69" x2="446.206" y2="34" gradientUnits="userSpaceOnUse">
<stop stop-color="#D9A273"/>
<stop offset="1" stop-color="#D9A273" stop-opacity="0"/>
</linearGradient>
<linearGradient id="paint15_linear_48_3076" x1="629.289" y1="-69" x2="629.289" y2="34" gradientUnits="userSpaceOnUse">
<stop stop-color="#D9A273"/>
<stop offset="1" stop-color="#D9A273" stop-opacity="0"/>
</linearGradient>
<linearGradient id="paint16_linear_48_3076" x1="80.0413" y1="-69" x2="80.0413" y2="34" gradientUnits="userSpaceOnUse">
<stop stop-color="#D9A273"/>
<stop offset="1" stop-color="#D9A273" stop-opacity="0"/>
</linearGradient>
<linearGradient id="paint17_linear_48_3076" x1="263.124" y1="-69" x2="263.124" y2="34" gradientUnits="userSpaceOnUse">
<stop stop-color="#D9A273"/>
<stop offset="1" stop-color="#D9A273" stop-opacity="0"/>
</linearGradient>
<linearGradient id="paint18_linear_48_3076" x1="263.124" y1="34" x2="263.124" y2="137" gradientUnits="userSpaceOnUse">
<stop stop-color="#D9A273"/>
<stop offset="1" stop-color="#D9A273" stop-opacity="0"/>
</linearGradient>
<linearGradient id="paint19_linear_48_3076" x1="80.0413" y1="34" x2="80.0413" y2="137" gradientUnits="userSpaceOnUse">
<stop stop-color="#D9A273"/>
<stop offset="1" stop-color="#D9A273" stop-opacity="0"/>
</linearGradient>
<linearGradient id="paint20_linear_48_3076" x1="80.0413" y1="137" x2="80.0413" y2="240" gradientUnits="userSpaceOnUse">
<stop stop-color="#D9A273"/>
<stop offset="1" stop-color="#D9A273" stop-opacity="0"/>
</linearGradient>
<linearGradient id="paint21_linear_48_3076" x1="263.124" y1="137" x2="263.124" y2="240" gradientUnits="userSpaceOnUse">
<stop stop-color="#D9A273"/>
<stop offset="1" stop-color="#D9A273" stop-opacity="0"/>
</linearGradient>
<linearGradient id="paint22_linear_48_3076" x1="629.289" y1="34" x2="629.289" y2="137" gradientUnits="userSpaceOnUse">
<stop stop-color="#D9A273"/>
<stop offset="1" stop-color="#D9A273" stop-opacity="0"/>
</linearGradient>
<linearGradient id="paint23_linear_48_3076" x1="491.977" y1="34" x2="491.977" y2="85.5" gradientUnits="userSpaceOnUse">
<stop stop-color="#D9A273"/>
<stop offset="1" stop-color="#D9A273" stop-opacity="0"/>
</linearGradient>
<linearGradient id="paint24_linear_48_3076" x1="400.436" y1="34" x2="400.436" y2="85.5" gradientUnits="userSpaceOnUse">
<stop stop-color="#D9A273"/>
<stop offset="1" stop-color="#D9A273" stop-opacity="0"/>
</linearGradient>
<linearGradient id="paint25_linear_48_3076" x1="400.436" y1="85.5" x2="400.436" y2="137" gradientUnits="userSpaceOnUse">
<stop stop-color="#D9A273"/>
<stop offset="1" stop-color="#D9A273" stop-opacity="0"/>
</linearGradient>
<linearGradient id="paint26_linear_48_3076" x1="491.977" y1="85.5" x2="491.977" y2="137" gradientUnits="userSpaceOnUse">
<stop stop-color="#D9A273"/>
<stop offset="1" stop-color="#D9A273" stop-opacity="0"/>
</linearGradient>
<linearGradient id="paint27_linear_48_3076" x1="446.206" y1="137" x2="446.206" y2="240" gradientUnits="userSpaceOnUse">
<stop stop-color="#D9A273"/>
<stop offset="1" stop-color="#D9A273" stop-opacity="0"/>
</linearGradient>
<linearGradient id="paint28_linear_48_3076" x1="675.059" y1="137" x2="675.059" y2="188.5" gradientUnits="userSpaceOnUse">
<stop stop-color="#D9A273"/>
<stop offset="1" stop-color="#D9A273" stop-opacity="0"/>
</linearGradient>
<linearGradient id="paint29_linear_48_3076" x1="583.518" y1="137" x2="583.518" y2="188.5" gradientUnits="userSpaceOnUse">
<stop stop-color="#D9A273"/>
<stop offset="1" stop-color="#D9A273" stop-opacity="0"/>
</linearGradient>
<linearGradient id="paint30_linear_48_3076" x1="583.518" y1="188.5" x2="583.518" y2="240" gradientUnits="userSpaceOnUse">
<stop stop-color="#D9A273"/>
<stop offset="1" stop-color="#D9A273" stop-opacity="0"/>
</linearGradient>
<linearGradient id="paint31_linear_48_3076" x1="675.059" y1="188.5" x2="675.059" y2="240" gradientUnits="userSpaceOnUse">
<stop stop-color="#D9A273"/>
<stop offset="1" stop-color="#D9A273" stop-opacity="0"/>
</linearGradient>
<linearGradient id="paint32_linear_48_3076" x1="629.289" y1="240" x2="629.289" y2="343" gradientUnits="userSpaceOnUse">
<stop stop-color="#D9A273"/>
<stop offset="1" stop-color="#D9A273" stop-opacity="0"/>
</linearGradient>
<linearGradient id="paint33_linear_48_3076" x1="446.206" y1="240" x2="446.206" y2="343" gradientUnits="userSpaceOnUse">
<stop stop-color="#D9A273"/>
<stop offset="1" stop-color="#D9A273" stop-opacity="0"/>
</linearGradient>
<linearGradient id="paint34_linear_48_3076" x1="446.206" y1="343" x2="446.206" y2="446" gradientUnits="userSpaceOnUse">
<stop stop-color="#D9A273"/>
<stop offset="1" stop-color="#D9A273" stop-opacity="0"/>
</linearGradient>
<linearGradient id="paint35_linear_48_3076" x1="675.059" y1="343" x2="675.059" y2="394.5" gradientUnits="userSpaceOnUse">
<stop stop-color="#D9A273"/>
<stop offset="1" stop-color="#D9A273" stop-opacity="0"/>
</linearGradient>
<linearGradient id="paint36_linear_48_3076" x1="583.518" y1="343" x2="583.518" y2="394.5" gradientUnits="userSpaceOnUse">
<stop stop-color="#D9A273"/>
<stop offset="1" stop-color="#D9A273" stop-opacity="0"/>
</linearGradient>
<linearGradient id="paint37_linear_48_3076" x1="583.518" y1="394.5" x2="583.518" y2="446" gradientUnits="userSpaceOnUse">
<stop stop-color="#D9A273"/>
<stop offset="1" stop-color="#D9A273" stop-opacity="0"/>
</linearGradient>
<linearGradient id="paint38_linear_48_3076" x1="675.059" y1="394.5" x2="675.059" y2="446" gradientUnits="userSpaceOnUse">
<stop stop-color="#D9A273"/>
<stop offset="1" stop-color="#D9A273" stop-opacity="0"/>
</linearGradient>
<linearGradient id="paint39_linear_48_3076" x1="263.124" y1="240" x2="263.124" y2="343" gradientUnits="userSpaceOnUse">
<stop stop-color="#D9A273"/>
<stop offset="1" stop-color="#D9A273" stop-opacity="0"/>
</linearGradient>
<linearGradient id="paint40_linear_48_3076" x1="80.0413" y1="240" x2="80.0413" y2="343" gradientUnits="userSpaceOnUse">
<stop stop-color="#D9A273"/>
<stop offset="1" stop-color="#D9A273" stop-opacity="0"/>
</linearGradient>
<linearGradient id="paint41_linear_48_3076" x1="80.0413" y1="343" x2="80.0413" y2="446" gradientUnits="userSpaceOnUse">
<stop stop-color="#D9A273"/>
<stop offset="1" stop-color="#D9A273" stop-opacity="0"/>
</linearGradient>
<linearGradient id="paint42_linear_48_3076" x1="263.124" y1="343" x2="263.124" y2="446" gradientUnits="userSpaceOnUse">
<stop stop-color="#D9A273"/>
<stop offset="1" stop-color="#D9A273" stop-opacity="0"/>
</linearGradient>
<linearGradient id="paint43_linear_48_3076" x1="171.583" y1="446" x2="171.583" y2="652" gradientUnits="userSpaceOnUse">
<stop stop-color="#D9A273"/>
<stop offset="1" stop-color="#D9A273" stop-opacity="0"/>
</linearGradient>
<linearGradient id="paint44_linear_48_3076" x1="629.289" y1="446" x2="629.289" y2="549" gradientUnits="userSpaceOnUse">
<stop stop-color="#D9A273"/>
<stop offset="1" stop-color="#D9A273" stop-opacity="0"/>
</linearGradient>
<linearGradient id="paint45_linear_48_3076" x1="446.206" y1="446" x2="446.206" y2="549" gradientUnits="userSpaceOnUse">
<stop stop-color="#D9A273"/>
<stop offset="1" stop-color="#D9A273" stop-opacity="0"/>
</linearGradient>
<linearGradient id="paint46_linear_48_3076" x1="1361.62" y1="240" x2="1361.62" y2="343" gradientUnits="userSpaceOnUse">
<stop stop-color="#D9A273"/>
<stop offset="1" stop-color="#D9A273" stop-opacity="0"/>
</linearGradient>
<linearGradient id="paint47_linear_48_3076" x1="1178.54" y1="240" x2="1178.54" y2="343" gradientUnits="userSpaceOnUse">
<stop stop-color="#D9A273"/>
<stop offset="1" stop-color="#D9A273" stop-opacity="0"/>
</linearGradient>
<linearGradient id="paint48_linear_48_3076" x1="1178.54" y1="343" x2="1178.54" y2="446" gradientUnits="userSpaceOnUse">
<stop stop-color="#D9A273"/>
<stop offset="1" stop-color="#D9A273" stop-opacity="0"/>
</linearGradient>
<linearGradient id="paint49_linear_48_3076" x1="1361.62" y1="343" x2="1361.62" y2="446" gradientUnits="userSpaceOnUse">
<stop stop-color="#D9A273"/>
<stop offset="1" stop-color="#D9A273" stop-opacity="0"/>
</linearGradient>
<linearGradient id="paint50_linear_48_3076" x1="995.454" y1="240" x2="995.454" y2="343" gradientUnits="userSpaceOnUse">
<stop stop-color="#D9A273"/>
<stop offset="1" stop-color="#D9A273" stop-opacity="0"/>
</linearGradient>
<linearGradient id="paint51_linear_48_3076" x1="858.142" y1="240" x2="858.142" y2="291.5" gradientUnits="userSpaceOnUse">
<stop stop-color="#D9A273"/>
<stop offset="1" stop-color="#D9A273" stop-opacity="0"/>
</linearGradient>
<linearGradient id="paint52_linear_48_3076" x1="766.601" y1="240" x2="766.601" y2="291.5" gradientUnits="userSpaceOnUse">
<stop stop-color="#D9A273"/>
<stop offset="1" stop-color="#D9A273" stop-opacity="0"/>
</linearGradient>
<linearGradient id="paint53_linear_48_3076" x1="766.601" y1="291.5" x2="766.601" y2="343" gradientUnits="userSpaceOnUse">
<stop stop-color="#D9A273"/>
<stop offset="1" stop-color="#D9A273" stop-opacity="0"/>
</linearGradient>
<linearGradient id="paint54_linear_48_3076" x1="858.142" y1="291.5" x2="858.142" y2="343" gradientUnits="userSpaceOnUse">
<stop stop-color="#D9A273"/>
<stop offset="1" stop-color="#D9A273" stop-opacity="0"/>
</linearGradient>
<linearGradient id="paint55_linear_48_3076" x1="812.371" y1="343" x2="812.371" y2="446" gradientUnits="userSpaceOnUse">
<stop stop-color="#D9A273"/>
<stop offset="1" stop-color="#D9A273" stop-opacity="0"/>
</linearGradient>
<linearGradient id="paint56_linear_48_3076" x1="995.454" y1="343" x2="995.454" y2="446" gradientUnits="userSpaceOnUse">
<stop stop-color="#D9A273"/>
<stop offset="1" stop-color="#D9A273" stop-opacity="0"/>
</linearGradient>
<linearGradient id="paint57_linear_48_3076" x1="995.454" y1="446" x2="995.454" y2="549" gradientUnits="userSpaceOnUse">
<stop stop-color="#D9A273"/>
<stop offset="1" stop-color="#D9A273" stop-opacity="0"/>
</linearGradient>
<linearGradient id="paint58_linear_48_3076" x1="812.371" y1="446" x2="812.371" y2="549" gradientUnits="userSpaceOnUse">
<stop stop-color="#D9A273"/>
<stop offset="1" stop-color="#D9A273" stop-opacity="0"/>
</linearGradient>
<linearGradient id="paint59_linear_48_3076" x1="1361.62" y1="446" x2="1361.62" y2="549" gradientUnits="userSpaceOnUse">
<stop stop-color="#D9A273"/>
<stop offset="1" stop-color="#D9A273" stop-opacity="0"/>
</linearGradient>
<linearGradient id="paint60_linear_48_3076" x1="1178.54" y1="446" x2="1178.54" y2="549" gradientUnits="userSpaceOnUse">
<stop stop-color="#D9A273"/>
<stop offset="1" stop-color="#D9A273" stop-opacity="0"/>
</linearGradient>
</defs>
</svg>
