<svg width="1422" height="739" viewBox="0 0 1422 739" fill="none" xmlns="http://www.w3.org/2000/svg">
<path d="M0 -30L54 24" stroke="#85564A" stroke-opacity="0.2" stroke-width="3.5"/>
<path d="M108 -30L54 24" stroke="#85564A" stroke-opacity="0.2" stroke-width="3.5"/>
<path d="M108 -30L162 24" stroke="#85564A" stroke-opacity="0.2" stroke-width="3.5"/>
<path d="M162 -30L216 24" stroke="#85564A" stroke-opacity="0.2" stroke-width="3.5"/>
<path d="M270 -30L216 24" stroke="#85564A" stroke-opacity="0.2" stroke-width="3.5"/>
<path d="M270 -30L324 24" stroke="#85564A" stroke-opacity="0.2" stroke-width="3.5"/>
<path d="M324 -30L378 24" stroke="#85564A" stroke-opacity="0.2" stroke-width="3.5"/>
<path d="M432 -30L378 24" stroke="#85564A" stroke-opacity="0.2" stroke-width="3.5"/>
<path d="M486 -30L432 24" stroke="#85564A" stroke-opacity="0.2" stroke-width="3.5"/>
<path d="M540 -30L486 24" stroke="#85564A" stroke-opacity="0.2" stroke-width="3.5"/>
<path d="M594 -30L540 24" stroke="#85564A" stroke-opacity="0.2" stroke-width="3.5"/>
<path d="M648 -30L594 24" stroke="#85564A" stroke-opacity="0.2" stroke-width="3.5"/>
<path d="M648 -30L702 24" stroke="#85564A" stroke-opacity="0.2" stroke-width="3.5"/>
<path d="M756 -30L702 24" stroke="#85564A" stroke-opacity="0.2" stroke-width="3.5"/>
<path d="M756 -30L810 24" stroke="#85564A" stroke-opacity="0.2" stroke-width="3.5"/>
<path d="M864 -30L810 24" stroke="#85564A" stroke-opacity="0.2" stroke-width="3.5"/>
<path d="M918 -30L864 24" stroke="#85564A" stroke-opacity="0.2" stroke-width="3.5"/>
<path d="M918 -30L972 24" stroke="#85564A" stroke-opacity="0.2" stroke-width="3.5"/>
<path d="M1026 -30L972 24" stroke="#85564A" stroke-opacity="0.2" stroke-width="3.5"/>
<path d="M1080 -30L1026 24" stroke="#85564A" stroke-opacity="0.2" stroke-width="3.5"/>
<path d="M1080 -30L1134 24" stroke="#85564A" stroke-opacity="0.2" stroke-width="3.5"/>
<path d="M1188 -30L1134 24" stroke="#85564A" stroke-opacity="0.2" stroke-width="3.5"/>
<path d="M1242 -30L1188 24" stroke="#85564A" stroke-opacity="0.2" stroke-width="3.5"/>
<path d="M1242 -30L1296 24" stroke="#85564A" stroke-opacity="0.2" stroke-width="3.5"/>
<path d="M1296 -30L1350 24" stroke="#85564A" stroke-opacity="0.2" stroke-width="3.5"/>
<path d="M1404 -30L1350 24" stroke="#85564A" stroke-opacity="0.2" stroke-width="3.5"/>
<path d="M1458 -30L1404 24" stroke="#85564A" stroke-opacity="0.2" stroke-width="3.5"/>
<path opacity="0.94" d="M54 24L0 78" stroke="#85564A" stroke-opacity="0.2" stroke-width="3.5"/>
<path opacity="0.94" d="M108 24L54 78" stroke="#85564A" stroke-opacity="0.2" stroke-width="3.5"/>
<path opacity="0.94" d="M162 24L108 78" stroke="#85564A" stroke-opacity="0.2" stroke-width="3.5"/>
<path opacity="0.94" d="M216 24L162 78" stroke="#85564A" stroke-opacity="0.2" stroke-width="3.5"/>
<path opacity="0.94" d="M216 24L270 78" stroke="#85564A" stroke-opacity="0.2" stroke-width="3.5"/>
<path opacity="0.94" d="M324 24L270 78" stroke="#85564A" stroke-opacity="0.2" stroke-width="3.5"/>
<path opacity="0.94" d="M324 24L378 78" stroke="#85564A" stroke-opacity="0.2" stroke-width="3.5"/>
<path opacity="0.94" d="M378 24L432 78" stroke="#85564A" stroke-opacity="0.2" stroke-width="3.5"/>
<path opacity="0.94" d="M432 24L486 78" stroke="#85564A" stroke-opacity="0.2" stroke-width="3.5"/>
<path opacity="0.94" d="M540 24L486 78" stroke="#85564A" stroke-opacity="0.2" stroke-width="3.5"/>
<path opacity="0.94" d="M594 24L540 78" stroke="#85564A" stroke-opacity="0.2" stroke-width="3.5"/>
<path opacity="0.94" d="M594 24L648 78" stroke="#85564A" stroke-opacity="0.2" stroke-width="3.5"/>
<path opacity="0.94" d="M648 24L702 78" stroke="#85564A" stroke-opacity="0.2" stroke-width="3.5"/>
<path opacity="0.94" d="M702 24L756 78" stroke="#85564A" stroke-opacity="0.2" stroke-width="3.5"/>
<path opacity="0.94" d="M810 24L756 78" stroke="#85564A" stroke-opacity="0.2" stroke-width="3.5"/>
<path opacity="0.94" d="M810 24L864 78" stroke="#85564A" stroke-opacity="0.2" stroke-width="3.5"/>
<path opacity="0.94" d="M864 24L918 78" stroke="#85564A" stroke-opacity="0.2" stroke-width="3.5"/>
<path opacity="0.94" d="M918 24L972 78" stroke="#85564A" stroke-opacity="0.2" stroke-width="3.5"/>
<path opacity="0.94" d="M1026 24L972 78" stroke="#85564A" stroke-opacity="0.2" stroke-width="3.5"/>
<path opacity="0.94" d="M1026 24L1080 78" stroke="#85564A" stroke-opacity="0.2" stroke-width="3.5"/>
<path opacity="0.94" d="M1134 24L1080 78" stroke="#85564A" stroke-opacity="0.2" stroke-width="3.5"/>
<path opacity="0.94" d="M1134 24L1188 78" stroke="#85564A" stroke-opacity="0.2" stroke-width="3.5"/>
<path opacity="0.94" d="M1242 24L1188 78" stroke="#85564A" stroke-opacity="0.2" stroke-width="3.5"/>
<path opacity="0.94" d="M1296 24L1242 78" stroke="#85564A" stroke-opacity="0.2" stroke-width="3.5"/>
<path opacity="0.94" d="M1296 24L1350 78" stroke="#85564A" stroke-opacity="0.2" stroke-width="3.5"/>
<path opacity="0.94" d="M1404 24L1350 78" stroke="#85564A" stroke-opacity="0.2" stroke-width="3.5"/>
<path opacity="0.94" d="M1404 24L1458 78" stroke="#85564A" stroke-opacity="0.2" stroke-width="3.5"/>
<path opacity="0.87" d="M0 78L54 132" stroke="#85564A" stroke-opacity="0.2" stroke-width="3.5"/>
<path opacity="0.87" d="M108 78L54 132" stroke="#85564A" stroke-opacity="0.2" stroke-width="3.5"/>
<path opacity="0.87" d="M108 78L162 132" stroke="#85564A" stroke-opacity="0.2" stroke-width="3.5"/>
<path opacity="0.87" d="M162 78L216 132" stroke="#85564A" stroke-opacity="0.2" stroke-width="3.5"/>
<path opacity="0.87" d="M270 78L216 132" stroke="#85564A" stroke-opacity="0.2" stroke-width="3.5"/>
<path opacity="0.87" d="M270 78L324 132" stroke="#85564A" stroke-opacity="0.2" stroke-width="3.5"/>
<path opacity="0.87" d="M324 78L378 132" stroke="#85564A" stroke-opacity="0.2" stroke-width="3.5"/>
<path opacity="0.87" d="M378 78L432 132" stroke="#85564A" stroke-opacity="0.2" stroke-width="3.5"/>
<path opacity="0.87" d="M432 78L486 132" stroke="#85564A" stroke-opacity="0.2" stroke-width="3.5"/>
<path opacity="0.87" d="M486 78L540 132" stroke="#85564A" stroke-opacity="0.2" stroke-width="3.5"/>
<path opacity="0.87" d="M540 78L594 132" stroke="#85564A" stroke-opacity="0.2" stroke-width="3.5"/>
<path opacity="0.87" d="M594 78L648 132" stroke="#85564A" stroke-opacity="0.2" stroke-width="3.5"/>
<path opacity="0.87" d="M702 78L648 132" stroke="#85564A" stroke-opacity="0.2" stroke-width="3.5"/>
<path opacity="0.87" d="M702 78L756 132" stroke="#85564A" stroke-opacity="0.2" stroke-width="3.5"/>
<path opacity="0.87" d="M756 78L810 132" stroke="#85564A" stroke-opacity="0.2" stroke-width="3.5"/>
<path opacity="0.87" d="M864 78L810 132" stroke="#85564A" stroke-opacity="0.2" stroke-width="3.5"/>
<path opacity="0.87" d="M918 78L864 132" stroke="#85564A" stroke-opacity="0.2" stroke-width="3.5"/>
<path opacity="0.87" d="M918 78L972 132" stroke="#85564A" stroke-opacity="0.2" stroke-width="3.5"/>
<path opacity="0.87" d="M972 78L1026 132" stroke="#85564A" stroke-opacity="0.2" stroke-width="3.5"/>
<path opacity="0.87" d="M1080 78L1026 132" stroke="#85564A" stroke-opacity="0.2" stroke-width="3.5"/>
<path opacity="0.87" d="M1134 78L1080 132" stroke="#85564A" stroke-opacity="0.2" stroke-width="3.5"/>
<path opacity="0.87" d="M1188 78L1134 132" stroke="#85564A" stroke-opacity="0.2" stroke-width="3.5"/>
<path opacity="0.87" d="M1188 78L1242 132" stroke="#85564A" stroke-opacity="0.2" stroke-width="3.5"/>
<path opacity="0.87" d="M1242 78L1296 132" stroke="#85564A" stroke-opacity="0.2" stroke-width="3.5"/>
<path opacity="0.87" d="M1296 78L1350 132" stroke="#85564A" stroke-opacity="0.2" stroke-width="3.5"/>
<path opacity="0.87" d="M1350 78L1404 132" stroke="#85564A" stroke-opacity="0.2" stroke-width="3.5"/>
<path opacity="0.87" d="M1458 78L1404 132" stroke="#85564A" stroke-opacity="0.2" stroke-width="3.5"/>
<path opacity="0.81" d="M0 132L54 186" stroke="#85564A" stroke-opacity="0.2" stroke-width="3.5"/>
<path opacity="0.81" d="M108 132L54 186" stroke="#85564A" stroke-opacity="0.2" stroke-width="3.5"/>
<path opacity="0.81" d="M108 132L162 186" stroke="#85564A" stroke-opacity="0.2" stroke-width="3.5"/>
<path opacity="0.81" d="M162 132L216 186" stroke="#85564A" stroke-opacity="0.2" stroke-width="3.5"/>
<path opacity="0.81" d="M216 132L270 186" stroke="#85564A" stroke-opacity="0.2" stroke-width="3.5"/>
<path opacity="0.81" d="M270 132L324 186" stroke="#85564A" stroke-opacity="0.2" stroke-width="3.5"/>
<path opacity="0.81" d="M378 132L324 186" stroke="#85564A" stroke-opacity="0.2" stroke-width="3.5"/>
<path opacity="0.81" d="M432 132L378 186" stroke="#85564A" stroke-opacity="0.2" stroke-width="3.5"/>
<path opacity="0.81" d="M432 132L486 186" stroke="#85564A" stroke-opacity="0.2" stroke-width="3.5"/>
<path opacity="0.81" d="M540 132L486 186" stroke="#85564A" stroke-opacity="0.2" stroke-width="3.5"/>
<path opacity="0.81" d="M540 132L594 186" stroke="#85564A" stroke-opacity="0.2" stroke-width="3.5"/>
<path opacity="0.81" d="M594 132L648 186" stroke="#85564A" stroke-opacity="0.2" stroke-width="3.5"/>
<path opacity="0.81" d="M702 132L648 186" stroke="#85564A" stroke-opacity="0.2" stroke-width="3.5"/>
<path opacity="0.81" d="M756 132L702 186" stroke="#85564A" stroke-opacity="0.2" stroke-width="3.5"/>
<path opacity="0.81" d="M810 132L756 186" stroke="#85564A" stroke-opacity="0.2" stroke-width="3.5"/>
<path opacity="0.81" d="M864 132L810 186" stroke="#85564A" stroke-opacity="0.2" stroke-width="3.5"/>
<path opacity="0.81" d="M864 132L918 186" stroke="#85564A" stroke-opacity="0.2" stroke-width="3.5"/>
<path opacity="0.81" d="M972 132L918 186" stroke="#85564A" stroke-opacity="0.2" stroke-width="3.5"/>
<path opacity="0.81" d="M1026 132L972 186" stroke="#85564A" stroke-opacity="0.2" stroke-width="3.5"/>
<path opacity="0.81" d="M1080 132L1026 186" stroke="#85564A" stroke-opacity="0.2" stroke-width="3.5"/>
<path opacity="0.81" d="M1080 132L1134 186" stroke="#85564A" stroke-opacity="0.2" stroke-width="3.5"/>
<path opacity="0.81" d="M1188 132L1134 186" stroke="#85564A" stroke-opacity="0.2" stroke-width="3.5"/>
<path opacity="0.81" d="M1188 132L1242 186" stroke="#85564A" stroke-opacity="0.2" stroke-width="3.5"/>
<path opacity="0.81" d="M1242 132L1296 186" stroke="#85564A" stroke-opacity="0.2" stroke-width="3.5"/>
<path opacity="0.81" d="M1350 132L1296 186" stroke="#85564A" stroke-opacity="0.2" stroke-width="3.5"/>
<path opacity="0.81" d="M1350 132L1404 186" stroke="#85564A" stroke-opacity="0.2" stroke-width="3.5"/>
<path opacity="0.81" d="M1404 132L1458 186" stroke="#85564A" stroke-opacity="0.2" stroke-width="3.5"/>
<path opacity="0.74" d="M0 186L54 240" stroke="#85564A" stroke-opacity="0.2" stroke-width="3.5"/>
<path opacity="0.74" d="M108 186L54 240" stroke="#85564A" stroke-opacity="0.2" stroke-width="3.5"/>
<path opacity="0.74" d="M108 186L162 240" stroke="#85564A" stroke-opacity="0.2" stroke-width="3.5"/>
<path opacity="0.74" d="M162 186L216 240" stroke="#85564A" stroke-opacity="0.2" stroke-width="3.5"/>
<path opacity="0.74" d="M216 186L270 240" stroke="#85564A" stroke-opacity="0.2" stroke-width="3.5"/>
<path opacity="0.74" d="M324 186L270 240" stroke="#85564A" stroke-opacity="0.2" stroke-width="3.5"/>
<path opacity="0.74" d="M378 186L324 240" stroke="#85564A" stroke-opacity="0.2" stroke-width="3.5"/>
<path opacity="0.74" d="M378 186L432 240" stroke="#85564A" stroke-opacity="0.2" stroke-width="3.5"/>
<path opacity="0.74" d="M486 186L432 240" stroke="#85564A" stroke-opacity="0.2" stroke-width="3.5"/>
<path opacity="0.74" d="M486 186L540 240" stroke="#85564A" stroke-opacity="0.2" stroke-width="3.5"/>
<path opacity="0.74" d="M540 186L594 240" stroke="#85564A" stroke-opacity="0.2" stroke-width="3.5"/>
<path opacity="0.74" d="M594 186L648 240" stroke="#85564A" stroke-opacity="0.2" stroke-width="3.5"/>
<path opacity="0.74" d="M702 186L648 240" stroke="#85564A" stroke-opacity="0.2" stroke-width="3.5"/>
<path opacity="0.74" d="M756 186L702 240" stroke="#85564A" stroke-opacity="0.2" stroke-width="3.5"/>
<path opacity="0.74" d="M756 186L810 240" stroke="#85564A" stroke-opacity="0.2" stroke-width="3.5"/>
<path opacity="0.74" d="M810 186L864 240" stroke="#85564A" stroke-opacity="0.2" stroke-width="3.5"/>
<path opacity="0.74" d="M918 186L864 240" stroke="#85564A" stroke-opacity="0.2" stroke-width="3.5"/>
<path opacity="0.74" d="M918 186L972 240" stroke="#85564A" stroke-opacity="0.2" stroke-width="3.5"/>
<path opacity="0.74" d="M972 186L1026 240" stroke="#85564A" stroke-opacity="0.2" stroke-width="3.5"/>
<path opacity="0.74" d="M1080 186L1026 240" stroke="#85564A" stroke-opacity="0.2" stroke-width="3.5"/>
<path opacity="0.74" d="M1080 186L1134 240" stroke="#85564A" stroke-opacity="0.2" stroke-width="3.5"/>
<path opacity="0.74" d="M1188 186L1134 240" stroke="#85564A" stroke-opacity="0.2" stroke-width="3.5"/>
<path opacity="0.74" d="M1242 186L1188 240" stroke="#85564A" stroke-opacity="0.2" stroke-width="3.5"/>
<path opacity="0.74" d="M1296 186L1242 240" stroke="#85564A" stroke-opacity="0.2" stroke-width="3.5"/>
<path opacity="0.74" d="M1296 186L1350 240" stroke="#85564A" stroke-opacity="0.2" stroke-width="3.5"/>
<path opacity="0.74" d="M1350 186L1404 240" stroke="#85564A" stroke-opacity="0.2" stroke-width="3.5"/>
<path opacity="0.74" d="M1458 186L1404 240" stroke="#85564A" stroke-opacity="0.2" stroke-width="3.5"/>
<path opacity="0.68" d="M54 240L0 294" stroke="#85564A" stroke-opacity="0.2" stroke-width="3.5"/>
<path opacity="0.68" d="M108 240L54 294" stroke="#85564A" stroke-opacity="0.2" stroke-width="3.5"/>
<path opacity="0.68" d="M108 240L162 294" stroke="#85564A" stroke-opacity="0.2" stroke-width="3.5"/>
<path opacity="0.68" d="M216 240L162 294" stroke="#85564A" stroke-opacity="0.2" stroke-width="3.5"/>
<path opacity="0.68" d="M216 240L270 294" stroke="#85564A" stroke-opacity="0.2" stroke-width="3.5"/>
<path opacity="0.68" d="M270 240L324 294" stroke="#85564A" stroke-opacity="0.2" stroke-width="3.5"/>
<path opacity="0.68" d="M324 240L378 294" stroke="#85564A" stroke-opacity="0.2" stroke-width="3.5"/>
<path opacity="0.68" d="M378 240L432 294" stroke="#85564A" stroke-opacity="0.2" stroke-width="3.5"/>
<path opacity="0.68" d="M432 240L486 294" stroke="#85564A" stroke-opacity="0.2" stroke-width="3.5"/>
<path opacity="0.68" d="M486 240L540 294" stroke="#85564A" stroke-opacity="0.2" stroke-width="3.5"/>
<path opacity="0.68" d="M594 240L540 294" stroke="#85564A" stroke-opacity="0.2" stroke-width="3.5"/>
<path opacity="0.68" d="M594 240L648 294" stroke="#85564A" stroke-opacity="0.2" stroke-width="3.5"/>
<path opacity="0.68" d="M648 240L702 294" stroke="#85564A" stroke-opacity="0.2" stroke-width="3.5"/>
<path opacity="0.68" d="M702 240L756 294" stroke="#85564A" stroke-opacity="0.2" stroke-width="3.5"/>
<path opacity="0.68" d="M810 240L756 294" stroke="#85564A" stroke-opacity="0.2" stroke-width="3.5"/>
<path opacity="0.68" d="M864 240L810 294" stroke="#85564A" stroke-opacity="0.2" stroke-width="3.5"/>
<path opacity="0.68" d="M864 240L918 294" stroke="#85564A" stroke-opacity="0.2" stroke-width="3.5"/>
<path opacity="0.68" d="M972 240L918 294" stroke="#85564A" stroke-opacity="0.2" stroke-width="3.5"/>
<path opacity="0.68" d="M972 240L1026 294" stroke="#85564A" stroke-opacity="0.2" stroke-width="3.5"/>
<path opacity="0.68" d="M1026 240L1080 294" stroke="#85564A" stroke-opacity="0.2" stroke-width="3.5"/>
<path opacity="0.68" d="M1080 240L1134 294" stroke="#85564A" stroke-opacity="0.2" stroke-width="3.5"/>
<path opacity="0.68" d="M1134 240L1188 294" stroke="#85564A" stroke-opacity="0.2" stroke-width="3.5"/>
<path opacity="0.68" d="M1188 240L1242 294" stroke="#85564A" stroke-opacity="0.2" stroke-width="3.5"/>
<path opacity="0.68" d="M1296 240L1242 294" stroke="#85564A" stroke-opacity="0.2" stroke-width="3.5"/>
<path opacity="0.68" d="M1296 240L1350 294" stroke="#85564A" stroke-opacity="0.2" stroke-width="3.5"/>
<path opacity="0.68" d="M1350 240L1404 294" stroke="#85564A" stroke-opacity="0.2" stroke-width="3.5"/>
<path opacity="0.68" d="M1404 240L1458 294" stroke="#85564A" stroke-opacity="0.2" stroke-width="3.5"/>
<path opacity="0.62" d="M0 294L54 348" stroke="#85564A" stroke-opacity="0.2" stroke-width="3.5"/>
<path opacity="0.62" d="M54 294L108 348" stroke="#85564A" stroke-opacity="0.2" stroke-width="3.5"/>
<path opacity="0.62" d="M108 294L162 348" stroke="#85564A" stroke-opacity="0.2" stroke-width="3.5"/>
<path opacity="0.62" d="M162 294L216 348" stroke="#85564A" stroke-opacity="0.2" stroke-width="3.5"/>
<path opacity="0.62" d="M270 294L216 348" stroke="#85564A" stroke-opacity="0.2" stroke-width="3.5"/>
<path opacity="0.62" d="M324 294L270 348" stroke="#85564A" stroke-opacity="0.2" stroke-width="3.5"/>
<path opacity="0.62" d="M324 294L378 348" stroke="#85564A" stroke-opacity="0.2" stroke-width="3.5"/>
<path opacity="0.62" d="M378 294L432 348" stroke="#85564A" stroke-opacity="0.2" stroke-width="3.5"/>
<path opacity="0.62" d="M486 294L432 348" stroke="#85564A" stroke-opacity="0.2" stroke-width="3.5"/>
<path opacity="0.62" d="M486 294L540 348" stroke="#85564A" stroke-opacity="0.2" stroke-width="3.5"/>
<path opacity="0.62" d="M594 294L540 348" stroke="#85564A" stroke-opacity="0.2" stroke-width="3.5"/>
<path opacity="0.62" d="M648 294L594 348" stroke="#85564A" stroke-opacity="0.2" stroke-width="3.5"/>
<path opacity="0.62" d="M702 294L648 348" stroke="#85564A" stroke-opacity="0.2" stroke-width="3.5"/>
<path opacity="0.62" d="M756 294L702 348" stroke="#85564A" stroke-opacity="0.2" stroke-width="3.5"/>
<path opacity="0.62" d="M756 294L810 348" stroke="#85564A" stroke-opacity="0.2" stroke-width="3.5"/>
<path opacity="0.62" d="M864 294L810 348" stroke="#85564A" stroke-opacity="0.2" stroke-width="3.5"/>
<path opacity="0.62" d="M864 294L918 348" stroke="#85564A" stroke-opacity="0.2" stroke-width="3.5"/>
<path opacity="0.62" d="M972 294L918 348" stroke="#85564A" stroke-opacity="0.2" stroke-width="3.5"/>
<path opacity="0.62" d="M972 294L1026 348" stroke="#85564A" stroke-opacity="0.2" stroke-width="3.5"/>
<path opacity="0.62" d="M1026 294L1080 348" stroke="#85564A" stroke-opacity="0.2" stroke-width="3.5"/>
<path opacity="0.62" d="M1134 294L1080 348" stroke="#85564A" stroke-opacity="0.2" stroke-width="3.5"/>
<path opacity="0.62" d="M1134 294L1188 348" stroke="#85564A" stroke-opacity="0.2" stroke-width="3.5"/>
<path opacity="0.62" d="M1188 294L1242 348" stroke="#85564A" stroke-opacity="0.2" stroke-width="3.5"/>
<path opacity="0.62" d="M1242 294L1296 348" stroke="#85564A" stroke-opacity="0.2" stroke-width="3.5"/>
<path opacity="0.62" d="M1296 294L1350 348" stroke="#85564A" stroke-opacity="0.2" stroke-width="3.5"/>
<path opacity="0.62" d="M1350 294L1404 348" stroke="#85564A" stroke-opacity="0.2" stroke-width="3.5"/>
<path opacity="0.62" d="M1458 294L1404 348" stroke="#85564A" stroke-opacity="0.2" stroke-width="3.5"/>
<path opacity="0.55" d="M54 348L0 402" stroke="#85564A" stroke-opacity="0.2" stroke-width="3.5"/>
<path opacity="0.55" d="M54 348L108 402" stroke="#85564A" stroke-opacity="0.2" stroke-width="3.5"/>
<path opacity="0.55" d="M162 348L108 402" stroke="#85564A" stroke-opacity="0.2" stroke-width="3.5"/>
<path opacity="0.55" d="M162 348L216 402" stroke="#85564A" stroke-opacity="0.2" stroke-width="3.5"/>
<path opacity="0.55" d="M216 348L270 402" stroke="#85564A" stroke-opacity="0.2" stroke-width="3.5"/>
<path opacity="0.55" d="M324 348L270 402" stroke="#85564A" stroke-opacity="0.2" stroke-width="3.5"/>
<path opacity="0.55" d="M324 348L378 402" stroke="#85564A" stroke-opacity="0.2" stroke-width="3.5"/>
<path opacity="0.55" d="M432 348L378 402" stroke="#85564A" stroke-opacity="0.2" stroke-width="3.5"/>
<path opacity="0.55" d="M432 348L486 402" stroke="#85564A" stroke-opacity="0.2" stroke-width="3.5"/>
<path opacity="0.55" d="M486 348L540 402" stroke="#85564A" stroke-opacity="0.2" stroke-width="3.5"/>
<path opacity="0.55" d="M540 348L594 402" stroke="#85564A" stroke-opacity="0.2" stroke-width="3.5"/>
<path opacity="0.55" d="M648 348L594 402" stroke="#85564A" stroke-opacity="0.2" stroke-width="3.5"/>
<path opacity="0.55" d="M702 348L648 402" stroke="#85564A" stroke-opacity="0.2" stroke-width="3.5"/>
<path opacity="0.55" d="M702 348L756 402" stroke="#85564A" stroke-opacity="0.2" stroke-width="3.5"/>
<path opacity="0.55" d="M756 348L810 402" stroke="#85564A" stroke-opacity="0.2" stroke-width="3.5"/>
<path opacity="0.55" d="M810 348L864 402" stroke="#85564A" stroke-opacity="0.2" stroke-width="3.5"/>
<path opacity="0.55" d="M918 348L864 402" stroke="#85564A" stroke-opacity="0.2" stroke-width="3.5"/>
<path opacity="0.55" d="M918 348L972 402" stroke="#85564A" stroke-opacity="0.2" stroke-width="3.5"/>
<path opacity="0.55" d="M972 348L1026 402" stroke="#85564A" stroke-opacity="0.2" stroke-width="3.5"/>
<path opacity="0.55" d="M1080 348L1026 402" stroke="#85564A" stroke-opacity="0.2" stroke-width="3.5"/>
<path opacity="0.55" d="M1134 348L1080 402" stroke="#85564A" stroke-opacity="0.2" stroke-width="3.5"/>
<path opacity="0.55" d="M1134 348L1188 402" stroke="#85564A" stroke-opacity="0.2" stroke-width="3.5"/>
<path opacity="0.55" d="M1188 348L1242 402" stroke="#85564A" stroke-opacity="0.2" stroke-width="3.5"/>
<path opacity="0.55" d="M1296 348L1242 402" stroke="#85564A" stroke-opacity="0.2" stroke-width="3.5"/>
<path opacity="0.55" d="M1350 348L1296 402" stroke="#85564A" stroke-opacity="0.2" stroke-width="3.5"/>
<path opacity="0.55" d="M1350 348L1404 402" stroke="#85564A" stroke-opacity="0.2" stroke-width="3.5"/>
<path opacity="0.55" d="M1458 348L1404 402" stroke="#85564A" stroke-opacity="0.2" stroke-width="3.5"/>
<path opacity="0.49" d="M54 402L0 456" stroke="#85564A" stroke-opacity="0.2" stroke-width="3.5"/>
<path opacity="0.49" d="M54 402L108 456" stroke="#85564A" stroke-opacity="0.2" stroke-width="3.5"/>
<path opacity="0.49" d="M108 402L162 456" stroke="#85564A" stroke-opacity="0.2" stroke-width="3.5"/>
<path opacity="0.49" d="M216 402L162 456" stroke="#85564A" stroke-opacity="0.2" stroke-width="3.5"/>
<path opacity="0.49" d="M216 402L270 456" stroke="#85564A" stroke-opacity="0.2" stroke-width="3.5"/>
<path opacity="0.49" d="M324 402L270 456" stroke="#85564A" stroke-opacity="0.2" stroke-width="3.5"/>
<path opacity="0.49" d="M324 402L378 456" stroke="#85564A" stroke-opacity="0.2" stroke-width="3.5"/>
<path opacity="0.49" d="M432 402L378 456" stroke="#85564A" stroke-opacity="0.2" stroke-width="3.5"/>
<path opacity="0.49" d="M432 402L486 456" stroke="#85564A" stroke-opacity="0.2" stroke-width="3.5"/>
<path opacity="0.49" d="M540 402L486 456" stroke="#85564A" stroke-opacity="0.2" stroke-width="3.5"/>
<path opacity="0.49" d="M540 402L594 456" stroke="#85564A" stroke-opacity="0.2" stroke-width="3.5"/>
<path opacity="0.49" d="M594 402L648 456" stroke="#85564A" stroke-opacity="0.2" stroke-width="3.5"/>
<path opacity="0.49" d="M702 402L648 456" stroke="#85564A" stroke-opacity="0.2" stroke-width="3.5"/>
<path opacity="0.49" d="M756 402L702 456" stroke="#85564A" stroke-opacity="0.2" stroke-width="3.5"/>
<path opacity="0.49" d="M810 402L756 456" stroke="#85564A" stroke-opacity="0.2" stroke-width="3.5"/>
<path opacity="0.49" d="M864 402L810 456" stroke="#85564A" stroke-opacity="0.2" stroke-width="3.5"/>
<path opacity="0.49" d="M864 402L918 456" stroke="#85564A" stroke-opacity="0.2" stroke-width="3.5"/>
<path opacity="0.49" d="M918 402L972 456" stroke="#85564A" stroke-opacity="0.2" stroke-width="3.5"/>
<path opacity="0.49" d="M972 402L1026 456" stroke="#85564A" stroke-opacity="0.2" stroke-width="3.5"/>
<path opacity="0.49" d="M1080 402L1026 456" stroke="#85564A" stroke-opacity="0.2" stroke-width="3.5"/>
<path opacity="0.49" d="M1134 402L1080 456" stroke="#85564A" stroke-opacity="0.2" stroke-width="3.5"/>
<path opacity="0.49" d="M1188 402L1134 456" stroke="#85564A" stroke-opacity="0.2" stroke-width="3.5"/>
<path opacity="0.49" d="M1188 402L1242 456" stroke="#85564A" stroke-opacity="0.2" stroke-width="3.5"/>
<path opacity="0.49" d="M1242 402L1296 456" stroke="#85564A" stroke-opacity="0.2" stroke-width="3.5"/>
<path opacity="0.49" d="M1296 402L1350 456" stroke="#85564A" stroke-opacity="0.2" stroke-width="3.5"/>
<path opacity="0.49" d="M1350 402L1404 456" stroke="#85564A" stroke-opacity="0.2" stroke-width="3.5"/>
<path opacity="0.49" d="M1404 402L1458 456" stroke="#85564A" stroke-opacity="0.2" stroke-width="3.5"/>
<path opacity="0.42" d="M54 456L0 510" stroke="#85564A" stroke-opacity="0.2" stroke-width="3.5"/>
<path opacity="0.42" d="M108 456L54 510" stroke="#85564A" stroke-opacity="0.2" stroke-width="3.5"/>
<path opacity="0.42" d="M108 456L162 510" stroke="#85564A" stroke-opacity="0.2" stroke-width="3.5"/>
<path opacity="0.42" d="M162 456L216 510" stroke="#85564A" stroke-opacity="0.2" stroke-width="3.5"/>
<path opacity="0.42" d="M270 456L216 510" stroke="#85564A" stroke-opacity="0.2" stroke-width="3.5"/>
<path opacity="0.42" d="M270 456L324 510" stroke="#85564A" stroke-opacity="0.2" stroke-width="3.5"/>
<path opacity="0.42" d="M378 456L324 510" stroke="#85564A" stroke-opacity="0.2" stroke-width="3.5"/>
<path opacity="0.42" d="M432 456L378 510" stroke="#85564A" stroke-opacity="0.2" stroke-width="3.5"/>
<path opacity="0.42" d="M486 456L432 510" stroke="#85564A" stroke-opacity="0.2" stroke-width="3.5"/>
<path opacity="0.42" d="M540 456L486 510" stroke="#85564A" stroke-opacity="0.2" stroke-width="3.5"/>
<path opacity="0.42" d="M540 456L594 510" stroke="#85564A" stroke-opacity="0.2" stroke-width="3.5"/>
<path opacity="0.42" d="M594 456L648 510" stroke="#85564A" stroke-opacity="0.2" stroke-width="3.5"/>
<path opacity="0.42" d="M648 456L702 510" stroke="#85564A" stroke-opacity="0.2" stroke-width="3.5"/>
<path opacity="0.42" d="M756 456L702 510" stroke="#85564A" stroke-opacity="0.2" stroke-width="3.5"/>
<path opacity="0.42" d="M756 456L810 510" stroke="#85564A" stroke-opacity="0.2" stroke-width="3.5"/>
<path opacity="0.42" d="M810 456L864 510" stroke="#85564A" stroke-opacity="0.2" stroke-width="3.5"/>
<path opacity="0.42" d="M918 456L864 510" stroke="#85564A" stroke-opacity="0.2" stroke-width="3.5"/>
<path opacity="0.42" d="M918 456L972 510" stroke="#85564A" stroke-opacity="0.2" stroke-width="3.5"/>
<path opacity="0.42" d="M972 456L1026 510" stroke="#85564A" stroke-opacity="0.2" stroke-width="3.5"/>
<path opacity="0.42" d="M1080 456L1026 510" stroke="#85564A" stroke-opacity="0.2" stroke-width="3.5"/>
<path opacity="0.42" d="M1134 456L1080 510" stroke="#85564A" stroke-opacity="0.2" stroke-width="3.5"/>
<path opacity="0.42" d="M1134 456L1188 510" stroke="#85564A" stroke-opacity="0.2" stroke-width="3.5"/>
<path opacity="0.42" d="M1188 456L1242 510" stroke="#85564A" stroke-opacity="0.2" stroke-width="3.5"/>
<path opacity="0.42" d="M1296 456L1242 510" stroke="#85564A" stroke-opacity="0.2" stroke-width="3.5"/>
<path opacity="0.42" d="M1296 456L1350 510" stroke="#85564A" stroke-opacity="0.2" stroke-width="3.5"/>
<path opacity="0.42" d="M1350 456L1404 510" stroke="#85564A" stroke-opacity="0.2" stroke-width="3.5"/>
<path opacity="0.42" d="M1458 456L1404 510" stroke="#85564A" stroke-opacity="0.2" stroke-width="3.5"/>
<path opacity="0.36" d="M54 510L0 564" stroke="#85564A" stroke-opacity="0.2" stroke-width="3.5"/>
<path opacity="0.36" d="M108 510L54 564" stroke="#85564A" stroke-opacity="0.2" stroke-width="3.5"/>
<path opacity="0.36" d="M108 510L162 564" stroke="#85564A" stroke-opacity="0.2" stroke-width="3.5"/>
<path opacity="0.36" d="M162 510L216 564" stroke="#85564A" stroke-opacity="0.2" stroke-width="3.5"/>
<path opacity="0.36" d="M216 510L270 564" stroke="#85564A" stroke-opacity="0.2" stroke-width="3.5"/>
<path opacity="0.36" d="M270 510L324 564" stroke="#85564A" stroke-opacity="0.2" stroke-width="3.5"/>
<path opacity="0.36" d="M324 510L378 564" stroke="#85564A" stroke-opacity="0.2" stroke-width="3.5"/>
<path opacity="0.36" d="M432 510L378 564" stroke="#85564A" stroke-opacity="0.2" stroke-width="3.5"/>
<path opacity="0.36" d="M486 510L432 564" stroke="#85564A" stroke-opacity="0.2" stroke-width="3.5"/>
<path opacity="0.36" d="M540 510L486 564" stroke="#85564A" stroke-opacity="0.2" stroke-width="3.5"/>
<path opacity="0.36" d="M540 510L594 564" stroke="#85564A" stroke-opacity="0.2" stroke-width="3.5"/>
<path opacity="0.36" d="M594 510L648 564" stroke="#85564A" stroke-opacity="0.2" stroke-width="3.5"/>
<path opacity="0.36" d="M702 510L648 564" stroke="#85564A" stroke-opacity="0.2" stroke-width="3.5"/>
<path opacity="0.36" d="M702 510L756 564" stroke="#85564A" stroke-opacity="0.2" stroke-width="3.5"/>
<path opacity="0.36" d="M756 510L810 564" stroke="#85564A" stroke-opacity="0.2" stroke-width="3.5"/>
<path opacity="0.36" d="M864 510L810 564" stroke="#85564A" stroke-opacity="0.2" stroke-width="3.5"/>
<path opacity="0.36" d="M918 510L864 564" stroke="#85564A" stroke-opacity="0.2" stroke-width="3.5"/>
<path opacity="0.36" d="M972 510L918 564" stroke="#85564A" stroke-opacity="0.2" stroke-width="3.5"/>
<path opacity="0.36" d="M972 510L1026 564" stroke="#85564A" stroke-opacity="0.2" stroke-width="3.5"/>
<path opacity="0.36" d="M1026 510L1080 564" stroke="#85564A" stroke-opacity="0.2" stroke-width="3.5"/>
<path opacity="0.36" d="M1134 510L1080 564" stroke="#85564A" stroke-opacity="0.2" stroke-width="3.5"/>
<path opacity="0.36" d="M1134 510L1188 564" stroke="#85564A" stroke-opacity="0.2" stroke-width="3.5"/>
<path opacity="0.36" d="M1242 510L1188 564" stroke="#85564A" stroke-opacity="0.2" stroke-width="3.5"/>
<path opacity="0.36" d="M1296 510L1242 564" stroke="#85564A" stroke-opacity="0.2" stroke-width="3.5"/>
<path opacity="0.36" d="M1296 510L1350 564" stroke="#85564A" stroke-opacity="0.2" stroke-width="3.5"/>
<path opacity="0.36" d="M1350 510L1404 564" stroke="#85564A" stroke-opacity="0.2" stroke-width="3.5"/>
<path opacity="0.36" d="M1458 510L1404 564" stroke="#85564A" stroke-opacity="0.2" stroke-width="3.5"/>
<path opacity="0.29" d="M0 564L54 618" stroke="#85564A" stroke-opacity="0.2" stroke-width="3.5"/>
<path opacity="0.29" d="M108 564L54 618" stroke="#85564A" stroke-opacity="0.2" stroke-width="3.5"/>
<path opacity="0.29" d="M162 564L108 618" stroke="#85564A" stroke-opacity="0.2" stroke-width="3.5"/>
<path opacity="0.29" d="M216 564L162 618" stroke="#85564A" stroke-opacity="0.2" stroke-width="3.5"/>
<path opacity="0.29" d="M270 564L216 618" stroke="#85564A" stroke-opacity="0.2" stroke-width="3.5"/>
<path opacity="0.29" d="M324 564L270 618" stroke="#85564A" stroke-opacity="0.2" stroke-width="3.5"/>
<path opacity="0.29" d="M324 564L378 618" stroke="#85564A" stroke-opacity="0.2" stroke-width="3.5"/>
<path opacity="0.29" d="M378 564L432 618" stroke="#85564A" stroke-opacity="0.2" stroke-width="3.5"/>
<path opacity="0.29" d="M486 564L432 618" stroke="#85564A" stroke-opacity="0.2" stroke-width="3.5"/>
<path opacity="0.29" d="M486 564L540 618" stroke="#85564A" stroke-opacity="0.2" stroke-width="3.5"/>
<path opacity="0.29" d="M594 564L540 618" stroke="#85564A" stroke-opacity="0.2" stroke-width="3.5"/>
<path opacity="0.29" d="M648 564L594 618" stroke="#85564A" stroke-opacity="0.2" stroke-width="3.5"/>
<path opacity="0.29" d="M702 564L648 618" stroke="#85564A" stroke-opacity="0.2" stroke-width="3.5"/>
<path opacity="0.29" d="M756 564L702 618" stroke="#85564A" stroke-opacity="0.2" stroke-width="3.5"/>
<path opacity="0.29" d="M756 564L810 618" stroke="#85564A" stroke-opacity="0.2" stroke-width="3.5"/>
<path opacity="0.29" d="M864 564L810 618" stroke="#85564A" stroke-opacity="0.2" stroke-width="3.5"/>
<path opacity="0.29" d="M864 564L918 618" stroke="#85564A" stroke-opacity="0.2" stroke-width="3.5"/>
<path opacity="0.29" d="M972 564L918 618" stroke="#85564A" stroke-opacity="0.2" stroke-width="3.5"/>
<path opacity="0.29" d="M972 564L1026 618" stroke="#85564A" stroke-opacity="0.2" stroke-width="3.5"/>
<path opacity="0.29" d="M1080 564L1026 618" stroke="#85564A" stroke-opacity="0.2" stroke-width="3.5"/>
<path opacity="0.29" d="M1134 564L1080 618" stroke="#85564A" stroke-opacity="0.2" stroke-width="3.5"/>
<path opacity="0.29" d="M1188 564L1134 618" stroke="#85564A" stroke-opacity="0.2" stroke-width="3.5"/>
<path opacity="0.29" d="M1242 564L1188 618" stroke="#85564A" stroke-opacity="0.2" stroke-width="3.5"/>
<path opacity="0.29" d="M1296 564L1242 618" stroke="#85564A" stroke-opacity="0.2" stroke-width="3.5"/>
<path opacity="0.29" d="M1350 564L1296 618" stroke="#85564A" stroke-opacity="0.2" stroke-width="3.5"/>
<path opacity="0.29" d="M1350 564L1404 618" stroke="#85564A" stroke-opacity="0.2" stroke-width="3.5"/>
<path opacity="0.29" d="M1458 564L1404 618" stroke="#85564A" stroke-opacity="0.2" stroke-width="3.5"/>
<path opacity="0.23" d="M54 618L0 672" stroke="#85564A" stroke-opacity="0.2" stroke-width="3.5"/>
<path opacity="0.23" d="M108 618L54 672" stroke="#85564A" stroke-opacity="0.2" stroke-width="3.5"/>
<path opacity="0.23" d="M108 618L162 672" stroke="#85564A" stroke-opacity="0.2" stroke-width="3.5"/>
<path opacity="0.23" d="M162 618L216 672" stroke="#85564A" stroke-opacity="0.2" stroke-width="3.5"/>
<path opacity="0.23" d="M270 618L216 672" stroke="#85564A" stroke-opacity="0.2" stroke-width="3.5"/>
<path opacity="0.23" d="M324 618L270 672" stroke="#85564A" stroke-opacity="0.2" stroke-width="3.5"/>
<path opacity="0.23" d="M378 618L324 672" stroke="#85564A" stroke-opacity="0.2" stroke-width="3.5"/>
<path opacity="0.23" d="M432 618L378 672" stroke="#85564A" stroke-opacity="0.2" stroke-width="3.5"/>
<path opacity="0.23" d="M432 618L486 672" stroke="#85564A" stroke-opacity="0.2" stroke-width="3.5"/>
<path opacity="0.23" d="M540 618L486 672" stroke="#85564A" stroke-opacity="0.2" stroke-width="3.5"/>
<path opacity="0.23" d="M594 618L540 672" stroke="#85564A" stroke-opacity="0.2" stroke-width="3.5"/>
<path opacity="0.23" d="M648 618L594 672" stroke="#85564A" stroke-opacity="0.2" stroke-width="3.5"/>
<path opacity="0.23" d="M648 618L702 672" stroke="#85564A" stroke-opacity="0.2" stroke-width="3.5"/>
<path opacity="0.23" d="M756 618L702 672" stroke="#85564A" stroke-opacity="0.2" stroke-width="3.5"/>
<path opacity="0.23" d="M810 618L756 672" stroke="#85564A" stroke-opacity="0.2" stroke-width="3.5"/>
<path opacity="0.23" d="M864 618L810 672" stroke="#85564A" stroke-opacity="0.2" stroke-width="3.5"/>
<path opacity="0.23" d="M864 618L918 672" stroke="#85564A" stroke-opacity="0.2" stroke-width="3.5"/>
<path opacity="0.23" d="M918 618L972 672" stroke="#85564A" stroke-opacity="0.2" stroke-width="3.5"/>
<path opacity="0.23" d="M1026 618L972 672" stroke="#85564A" stroke-opacity="0.2" stroke-width="3.5"/>
<path opacity="0.23" d="M1026 618L1080 672" stroke="#85564A" stroke-opacity="0.2" stroke-width="3.5"/>
<path opacity="0.23" d="M1080 618L1134 672" stroke="#85564A" stroke-opacity="0.2" stroke-width="3.5"/>
<path opacity="0.23" d="M1188 618L1134 672" stroke="#85564A" stroke-opacity="0.2" stroke-width="3.5"/>
<path opacity="0.23" d="M1188 618L1242 672" stroke="#85564A" stroke-opacity="0.2" stroke-width="3.5"/>
<path opacity="0.23" d="M1242 618L1296 672" stroke="#85564A" stroke-opacity="0.2" stroke-width="3.5"/>
<path opacity="0.23" d="M1350 618L1296 672" stroke="#85564A" stroke-opacity="0.2" stroke-width="3.5"/>
<path opacity="0.23" d="M1404 618L1350 672" stroke="#85564A" stroke-opacity="0.2" stroke-width="3.5"/>
<path opacity="0.23" d="M1404 618L1458 672" stroke="#85564A" stroke-opacity="0.2" stroke-width="3.5"/>
<path opacity="0.17" d="M0 672L54 726" stroke="#85564A" stroke-opacity="0.2" stroke-width="3.5"/>
<path opacity="0.17" d="M108 672L54 726" stroke="#85564A" stroke-opacity="0.2" stroke-width="3.5"/>
<path opacity="0.17" d="M162 672L108 726" stroke="#85564A" stroke-opacity="0.2" stroke-width="3.5"/>
<path opacity="0.17" d="M162 672L216 726" stroke="#85564A" stroke-opacity="0.2" stroke-width="3.5"/>
<path opacity="0.17" d="M270 672L216 726" stroke="#85564A" stroke-opacity="0.2" stroke-width="3.5"/>
<path opacity="0.17" d="M270 672L324 726" stroke="#85564A" stroke-opacity="0.2" stroke-width="3.5"/>
<path opacity="0.17" d="M324 672L378 726" stroke="#85564A" stroke-opacity="0.2" stroke-width="3.5"/>
<path opacity="0.17" d="M432 672L378 726" stroke="#85564A" stroke-opacity="0.2" stroke-width="3.5"/>
<path opacity="0.17" d="M486 672L432 726" stroke="#85564A" stroke-opacity="0.2" stroke-width="3.5"/>
<path opacity="0.17" d="M486 672L540 726" stroke="#85564A" stroke-opacity="0.2" stroke-width="3.5"/>
<path opacity="0.17" d="M594 672L540 726" stroke="#85564A" stroke-opacity="0.2" stroke-width="3.5"/>
<path opacity="0.17" d="M594 672L648 726" stroke="#85564A" stroke-opacity="0.2" stroke-width="3.5"/>
<path opacity="0.17" d="M702 672L648 726" stroke="#85564A" stroke-opacity="0.2" stroke-width="3.5"/>
<path opacity="0.17" d="M702 672L756 726" stroke="#85564A" stroke-opacity="0.2" stroke-width="3.5"/>
<path opacity="0.17" d="M756 672L810 726" stroke="#85564A" stroke-opacity="0.2" stroke-width="3.5"/>
<path opacity="0.17" d="M864 672L810 726" stroke="#85564A" stroke-opacity="0.2" stroke-width="3.5"/>
<path opacity="0.17" d="M864 672L918 726" stroke="#85564A" stroke-opacity="0.2" stroke-width="3.5"/>
<path opacity="0.17" d="M972 672L918 726" stroke="#85564A" stroke-opacity="0.2" stroke-width="3.5"/>
<path opacity="0.17" d="M972 672L1026 726" stroke="#85564A" stroke-opacity="0.2" stroke-width="3.5"/>
<path opacity="0.17" d="M1026 672L1080 726" stroke="#85564A" stroke-opacity="0.2" stroke-width="3.5"/>
<path opacity="0.17" d="M1134 672L1080 726" stroke="#85564A" stroke-opacity="0.2" stroke-width="3.5"/>
<path opacity="0.17" d="M1134 672L1188 726" stroke="#85564A" stroke-opacity="0.2" stroke-width="3.5"/>
<path opacity="0.17" d="M1188 672L1242 726" stroke="#85564A" stroke-opacity="0.2" stroke-width="3.5"/>
<path opacity="0.17" d="M1296 672L1242 726" stroke="#85564A" stroke-opacity="0.2" stroke-width="3.5"/>
<path opacity="0.17" d="M1350 672L1296 726" stroke="#85564A" stroke-opacity="0.2" stroke-width="3.5"/>
<path opacity="0.17" d="M1350 672L1404 726" stroke="#85564A" stroke-opacity="0.2" stroke-width="3.5"/>
<path opacity="0.17" d="M1458 672L1404 726" stroke="#85564A" stroke-opacity="0.2" stroke-width="3.5"/>
<path opacity="0.1" d="M0 726L54 780" stroke="#85564A" stroke-opacity="0.2" stroke-width="3.5"/>
<path opacity="0.1" d="M54 726L108 780" stroke="#85564A" stroke-opacity="0.2" stroke-width="3.5"/>
<path opacity="0.1" d="M162 726L108 780" stroke="#85564A" stroke-opacity="0.2" stroke-width="3.5"/>
<path opacity="0.1" d="M216 726L162 780" stroke="#85564A" stroke-opacity="0.2" stroke-width="3.5"/>
<path opacity="0.1" d="M270 726L216 780" stroke="#85564A" stroke-opacity="0.2" stroke-width="3.5"/>
<path opacity="0.1" d="M270 726L324 780" stroke="#85564A" stroke-opacity="0.2" stroke-width="3.5"/>
<path opacity="0.1" d="M324 726L378 780" stroke="#85564A" stroke-opacity="0.2" stroke-width="3.5"/>
<path opacity="0.1" d="M432 726L378 780" stroke="#85564A" stroke-opacity="0.2" stroke-width="3.5"/>
<path opacity="0.1" d="M486 726L432 780" stroke="#85564A" stroke-opacity="0.2" stroke-width="3.5"/>
<path opacity="0.1" d="M486 726L540 780" stroke="#85564A" stroke-opacity="0.2" stroke-width="3.5"/>
<path opacity="0.1" d="M594 726L540 780" stroke="#85564A" stroke-opacity="0.2" stroke-width="3.5"/>
<path opacity="0.1" d="M648 726L594 780" stroke="#85564A" stroke-opacity="0.2" stroke-width="3.5"/>
<path opacity="0.1" d="M702 726L648 780" stroke="#85564A" stroke-opacity="0.2" stroke-width="3.5"/>
<path opacity="0.1" d="M756 726L702 780" stroke="#85564A" stroke-opacity="0.2" stroke-width="3.5"/>
<path opacity="0.1" d="M810 726L756 780" stroke="#85564A" stroke-opacity="0.2" stroke-width="3.5"/>
<path opacity="0.1" d="M864 726L810 780" stroke="#85564A" stroke-opacity="0.2" stroke-width="3.5"/>
<path opacity="0.1" d="M864 726L918 780" stroke="#85564A" stroke-opacity="0.2" stroke-width="3.5"/>
<path opacity="0.1" d="M972 726L918 780" stroke="#85564A" stroke-opacity="0.2" stroke-width="3.5"/>
<path opacity="0.1" d="M1026 726L972 780" stroke="#85564A" stroke-opacity="0.2" stroke-width="3.5"/>
<path opacity="0.1" d="M1080 726L1026 780" stroke="#85564A" stroke-opacity="0.2" stroke-width="3.5"/>
<path opacity="0.1" d="M1080 726L1134 780" stroke="#85564A" stroke-opacity="0.2" stroke-width="3.5"/>
<path opacity="0.1" d="M1188 726L1134 780" stroke="#85564A" stroke-opacity="0.2" stroke-width="3.5"/>
<path opacity="0.1" d="M1242 726L1188 780" stroke="#85564A" stroke-opacity="0.2" stroke-width="3.5"/>
<path opacity="0.1" d="M1242 726L1296 780" stroke="#85564A" stroke-opacity="0.2" stroke-width="3.5"/>
<path opacity="0.1" d="M1350 726L1296 780" stroke="#85564A" stroke-opacity="0.2" stroke-width="3.5"/>
<path opacity="0.1" d="M1404 726L1350 780" stroke="#85564A" stroke-opacity="0.2" stroke-width="3.5"/>
<path opacity="0.1" d="M1458 726L1404 780" stroke="#85564A" stroke-opacity="0.2" stroke-width="3.5"/>
</svg>
