<svg width="40" height="40" viewBox="0 0 40 40" fill="none" xmlns="http://www.w3.org/2000/svg">
<path d="M36.25 20C36.2449 23.9715 34.7877 27.8042 32.1529 30.776C29.5182 33.7477 25.8877 35.6535 21.9453 36.1343C21.8575 36.1443 21.7686 36.1355 21.6845 36.1086C21.6003 36.0816 21.5229 36.0372 21.4572 35.9781C21.3915 35.9191 21.339 35.8467 21.3033 35.7659C21.2676 35.6851 21.2494 35.5977 21.25 35.5093V23.75H25C25.1713 23.7503 25.341 23.7155 25.4983 23.6475C25.6556 23.5796 25.7973 23.4801 25.9145 23.3551C26.0317 23.2301 26.122 23.0823 26.1797 22.921C26.2374 22.7596 26.2613 22.5881 26.25 22.4171C26.2224 22.0957 26.0741 21.7967 25.8349 21.5801C25.5958 21.3636 25.2835 21.2456 24.9609 21.25H21.25V17.5C21.25 16.8369 21.5134 16.201 21.9822 15.7322C22.4511 15.2634 23.0869 15 23.75 15H26.25C26.4213 15.0003 26.591 14.9655 26.7483 14.8975C26.9056 14.8296 27.0473 14.7301 27.1645 14.6051C27.2817 14.4801 27.372 14.3323 27.4297 14.171C27.4874 14.0096 27.5113 13.8381 27.5 13.6671C27.4723 13.3452 27.3236 13.0457 27.0838 12.829C26.844 12.6124 26.5309 12.4948 26.2078 12.5H23.75C22.4239 12.5 21.1521 13.0267 20.2145 13.9644C19.2768 14.9021 18.75 16.1739 18.75 17.5V21.25H15C14.8286 21.2496 14.659 21.2844 14.5017 21.3524C14.3444 21.4203 14.2027 21.5199 14.0855 21.6449C13.9683 21.7698 13.878 21.9176 13.8203 22.0789C13.7626 22.2403 13.7386 22.4118 13.75 22.5828C13.7776 22.9048 13.9264 23.2043 14.1662 23.4209C14.406 23.6375 14.7191 23.7551 15.0422 23.75H18.75V35.5125C18.7505 35.6007 18.7324 35.688 18.6968 35.7687C18.6612 35.8493 18.6089 35.9216 18.5433 35.9806C18.4778 36.0396 18.4005 36.0841 18.3166 36.1112C18.2326 36.1382 18.1439 36.1472 18.0562 36.1375C14.0084 35.6445 10.2931 33.6498 7.64573 30.5482C4.9984 27.4466 3.612 23.4641 3.76093 19.389C4.07343 10.9515 10.9078 4.09215 19.3516 3.76402C21.5376 3.67934 23.7183 4.03645 25.7632 4.81397C27.8081 5.59149 29.6752 6.77346 31.2527 8.28917C32.8303 9.80489 34.086 11.6232 34.9446 13.6354C35.8032 15.6476 36.2472 17.8122 36.25 20Z" fill="#1051F9"/>
</svg>
