<svg width="18" height="22" viewBox="0 0 18 22" fill="none" xmlns="http://www.w3.org/2000/svg">
<path d="M9.21512 0.129883C7.02784 0.132364 4.93087 1.00235 3.38423 2.54899C1.83759 4.09563 0.9676 6.19261 0.965118 8.37988C0.965118 15.4393 8.46512 20.7708 8.78481 20.9939C8.91091 21.0823 9.06115 21.1297 9.21512 21.1297C9.36909 21.1297 9.51933 21.0823 9.64543 20.9939C9.96512 20.7708 17.4651 15.4393 17.4651 8.37988C17.4626 6.19261 16.5926 4.09563 15.046 2.54899C13.4994 1.00235 11.4024 0.132364 9.21512 0.129883ZM9.21512 5.37988C9.80846 5.37988 10.3885 5.55583 10.8818 5.88547C11.3752 6.21512 11.7597 6.68365 11.9868 7.23183C12.2138 7.78001 12.2732 8.38321 12.1575 8.96515C12.0417 9.5471 11.756 10.0816 11.3364 10.5012C10.9169 10.9208 10.3823 11.2065 9.80039 11.3222C9.21845 11.438 8.61525 11.3786 8.06707 11.1515C7.51889 10.9245 7.05035 10.5399 6.72071 10.0466C6.39107 9.55325 6.21512 8.97323 6.21512 8.37988C6.21512 7.58423 6.53119 6.82117 7.0938 6.25856C7.65641 5.69595 8.41947 5.37988 9.21512 5.37988Z" fill="#2C7189"/>
</svg>
