<svg width="24" height="25" viewBox="0 0 24 25" fill="none" xmlns="http://www.w3.org/2000/svg">
<path d="M21.6939 4.65669C21.6939 4.65669 21.6939 4.66607 21.6939 4.67075L16.2376 22.6651C16.155 22.9574 15.985 23.2174 15.7504 23.4103C15.5158 23.6032 15.2278 23.7197 14.9251 23.7442C14.882 23.7479 14.8389 23.7498 14.7957 23.7498C14.512 23.7507 14.234 23.6704 13.9945 23.5184C13.7549 23.3664 13.5639 23.1491 13.4439 22.892L10.0961 15.8242C10.063 15.7543 10.0524 15.6758 10.0656 15.5996C10.0789 15.5234 10.1154 15.4532 10.1701 15.3986L15.5382 10.0295C15.673 9.88771 15.747 9.69889 15.7444 9.50332C15.7419 9.30775 15.6631 9.1209 15.5248 8.98259C15.3865 8.84429 15.1997 8.76549 15.0041 8.76299C14.8085 8.76048 14.6197 8.83448 14.4779 8.96919L9.10137 14.3373C9.04672 14.392 8.97649 14.4285 8.90029 14.4418C8.82409 14.4551 8.74566 14.4444 8.67574 14.4114L1.64449 11.0804C1.36835 10.9539 1.13595 10.7483 0.97674 10.4896C0.817528 10.231 0.738657 9.93085 0.750116 9.62732C0.765386 9.31535 0.878328 9.01607 1.07297 8.7718C1.26762 8.52752 1.53412 8.35061 1.8348 8.26607L19.8292 2.80982H19.8432C20.0994 2.73784 20.3702 2.73531 20.6277 2.80251C20.8852 2.8697 21.1202 3.00419 21.3085 3.19217C21.4969 3.38016 21.6319 3.61487 21.6996 3.87224C21.7673 4.1296 21.7653 4.40034 21.6939 4.65669Z" fill="#FBF6F1"/>
</svg>
