<svg width="40" height="40" viewBox="0 0 40 40" fill="none" xmlns="http://www.w3.org/2000/svg">
<path d="M38.3844 12.1343L33.7125 16.8062C32.7688 27.7468 23.5422 36.25 12.5 36.25C10.2313 36.25 8.36095 35.8906 6.94064 35.1812C5.79533 34.6078 5.32658 33.9937 5.20939 33.8187C5.1049 33.662 5.03717 33.4837 5.01127 33.2972C4.98536 33.1106 5.00195 32.9206 5.0598 32.7414C5.11765 32.5621 5.21525 32.3982 5.34532 32.262C5.47539 32.1258 5.63457 32.0207 5.81095 31.9547C5.85158 31.939 9.59845 30.5 11.9781 27.7609C10.6584 26.6759 9.50639 25.4017 8.55939 23.9797C6.62189 21.1031 4.45314 16.1062 5.12189 8.63904C5.14309 8.40177 5.23164 8.17549 5.37713 7.98686C5.52262 7.79823 5.71897 7.6551 5.94308 7.57432C6.16718 7.49355 6.4097 7.47849 6.64208 7.53092C6.87445 7.58336 7.087 7.7011 7.2547 7.87029C7.30939 7.92497 12.4547 13.0422 18.7453 14.7015V13.75C18.7429 12.7522 18.9402 11.7639 19.3256 10.8435C19.7109 9.92311 20.2765 9.08909 20.9891 8.3906C21.6811 7.69955 22.5045 7.1541 23.4108 6.78645C24.317 6.4188 25.2878 6.23638 26.2656 6.24997C27.5775 6.26291 28.8636 6.61506 29.999 7.27217C31.1345 7.92928 32.0806 8.869 32.7453 9.99997H37.5C37.7474 9.99978 37.9893 10.073 38.195 10.2103C38.4007 10.3477 38.5611 10.543 38.6558 10.7715C38.7505 11 38.7752 11.2515 38.7269 11.4941C38.6786 11.7367 38.5594 11.9595 38.3844 12.1343Z" fill="#118FEB"/>
</svg>
