<svg width="32" height="32" viewBox="0 0 32 32" fill="none" xmlns="http://www.w3.org/2000/svg">
<path d="M4.57144 0C2.05 0 0 2.05 0 4.57143V27.4286C0 29.95 2.05 32 4.57144 32H27.4286C29.9501 32 32.0001 29.95 32.0001 27.4286V4.57143C32.0001 2.05 29.9501 0 27.4286 0H4.57144ZM25.7929 6L18.3786 14.4714L27.1001 26H20.2715L14.9286 19.0071L8.80716 26H5.4143L13.3429 16.9357L4.97858 6H11.9786L16.8143 12.3929L22.4 6H25.7929ZM23.0929 23.9714L10.9572 7.92143H8.93573L21.2072 23.9714H23.0858H23.0929Z" fill="#151A20"/>
</svg>
